<svg xmlns="http://www.w3.org/2000/svg" style="display: none;"><symbol id="password-3" viewBox="0 0 512 512"><title>password-3</title><path style="fill:#303C42;" d="M437.333,192h-32v-42.667C405.333,66.99,338.344,0,256,0S106.667,66.99,106.667,149.333V192h-32 C68.771,192,64,196.771,64,202.667v266.667C64,492.865,83.135,512,106.667,512h298.667C428.865,512,448,492.865,448,469.333V202.667 C448,196.771,443.229,192,437.333,192z M341.333,192H170.667v-42.667C170.667,102.281,208.948,64,256,64 s85.333,38.281,85.333,85.333V192z"/><path style="fill:#F2F2F2;" d="M128,149.333c0-70.583,57.417-128,128-128s128,57.417,128,128V192h-21.333v-42.667 c0-58.813-47.854-106.667-106.667-106.667S149.333,90.521,149.333,149.333V192H128V149.333z"/><path style="fill:#FFCA28;" d="M426.667,469.333c0,11.76-9.573,21.333-21.333,21.333H106.667c-11.76,0-21.333-9.573-21.333-21.333 v-256h341.333V469.333z"/><path style="opacity:0.2;fill:#FFFFFF;enable-background:new ;" d="M128,469.333v-256H85.333v256 c0,11.76,9.573,21.333,21.333,21.333H144C135.18,490.667,128,481.094,128,469.333z"/><path style="opacity:0.1;enable-background:new ;" d="M384,213.333v256c0,11.76-7.18,21.333-16,21.333h37.333 c11.76,0,21.333-9.573,21.333-21.333v-256H384z"/><path style="fill:#303C42;" d="M230.792,354.313l-6.729,60.51c-0.333,3.01,0.635,6.031,2.656,8.292 c2.021,2.26,4.917,3.552,7.948,3.552h42.667c3.031,0,5.927-1.292,7.948-3.552c2.021-2.26,2.99-5.281,2.656-8.292l-6.729-60.51 c10.927-7.948,17.458-20.521,17.458-34.313c0-23.531-19.135-42.667-42.667-42.667S213.333,296.469,213.333,320 C213.333,333.792,219.865,346.365,230.792,354.313z"/><path style="fill:#5C6671;" d="M256,298.667c11.76,0,21.333,9.573,21.333,21.333c0,8.177-4.646,15.5-12.125,19.125 c-4.073,1.979-6.458,6.292-5.958,10.781l6.167,55.427h-18.833l6.167-55.427c0.5-4.49-1.885-8.802-5.958-10.781 c-7.479-3.625-12.125-10.948-12.125-19.125C234.667,308.24,244.24,298.667,256,298.667z"/><path style="opacity:0.1;enable-background:new ;" d="M247.716,340.001c-1.434-2.866-2.383-5.987-2.383-9.335 c0-11.76,9.573-21.333,21.333-21.333c3.12,0,6.034,0.749,8.708,1.958c-3.349-7.406-10.734-12.625-19.375-12.625 c-11.76,0-21.333,9.573-21.333,21.333c0,8.177,4.646,15.5,12.125,19.125C247.193,339.32,247.349,339.763,247.716,340.001z"/><path style="opacity:0.1;enable-background:new ;" d="M261.927,373.965l-2.48-22.288c-0.701-0.608-1.125-1.466-1.988-1.885 c-2.096-1.016-3.9-2.376-5.512-3.911c0.385,1.323,0.962,2.599,0.803,4.026l-6.167,55.427h11.853L261.927,373.965z"/><linearGradient id="SVGID_1_" gradientUnits="userSpaceOnUse" x1="-43.622" y1="637.2695" x2="-23.8368" y2="628.0435" gradientTransform="matrix(21.3333 0 0 -21.3333 996.3334 13791.667)"> <stop offset="0" style="stop-color:#FFFFFF;stop-opacity:0.2"/> <stop offset="1" style="stop-color:#FFFFFF;stop-opacity:0"/> </linearGradient><path style="fill:url(#SVGID_1_);" d="M437.333,192h-32v-42.667C405.333,66.99,338.344,0,256,0S106.667,66.99,106.667,149.333V192 h-32C68.771,192,64,196.771,64,202.667v266.667C64,492.865,83.135,512,106.667,512h298.667C428.865,512,448,492.865,448,469.333 V202.667C448,196.771,443.229,192,437.333,192z M341.333,192H170.667v-42.667C170.667,102.281,208.948,64,256,64 s85.333,38.281,85.333,85.333V192z"/></symbol><symbol id="login-2" viewBox="0 0 403.68 403.68"><title>login-2</title><g> <path style="fill:#CCCCCC;" d="M380,229.09H101.68h-78C10.6,229.09,0,239.69,0,252.77v54.64c0,13.08,10.6,23.68,23.68,23.68h78 H380c13.08,0,23.68-10.6,23.68-23.68v-54.64C403.68,239.69,393.08,229.09,380,229.09z"/> <path style="fill:#CCCCCC;" d="M380,86.09H101.68h-78C10.6,86.09,0,96.69,0,109.77v54.64c0,13.08,10.6,23.68,23.68,23.68h78H380 c13.08,0,23.68-10.6,23.68-23.68v-54.64C403.68,96.69,393.08,86.09,380,86.09z"/> </g><path style="fill:#F9A18A;" d="M101.68,215.59v102h-78C10.6,317.59,0,306.99,0,293.91v-54.64c0-13.08,10.6-23.68,23.68-23.68 H101.68z"/><path style="fill:#88C5FC;" d="M403.68,239.27v54.64c0,13.08-10.6,23.68-23.68,23.68H101.68v-102H380 C393.08,215.59,403.68,226.19,403.68,239.27z"/><path style="fill:#88C5FC;" d="M403.68,96.27v54.64c0,13.08-10.6,23.68-23.68,23.68H101.68v-102H380 C393.08,72.59,403.68,83.19,403.68,96.27z"/><path style="fill:#F9A18A;" d="M101.68,72.59v102h-78C10.6,174.59,0,163.99,0,150.91V96.27c0-13.08,10.6-23.68,23.68-23.68H101.68z "/><path style="fill:#FFFFFF;" d="M70.895,155.091H32.463v-6.133c0-10.596,8.62-19.216,19.216-19.216s19.216,8.62,19.216,19.216 C70.895,148.958,70.895,155.091,70.895,155.091z"/><path style="fill:#FFFFFF;" d="M51.679,133.008c-10.596,0-19.216-8.62-19.216-19.216s8.62-19.216,19.216-19.216 s19.216,8.62,19.216,19.216S62.275,133.008,51.679,133.008z"/><path style="fill:#FFFFFF;" d="M155.678,280.418c-7.624,0-13.826-6.202-13.826-13.826s6.202-13.826,13.826-13.826 s13.826,6.202,13.826,13.826S163.302,280.418,155.678,280.418z"/><path style="fill:#FFFFFF;" d="M47.189,263.678H35.738v-13.742c0-9.893,8.048-17.941,17.941-17.941s17.941,8.048,17.941,17.941 H60.168c0-3.578-2.911-6.489-6.489-6.489s-6.489,2.911-6.489,6.489v13.742H47.189z"/><path style="fill:#FFFFFF;" d="M71.62,295.463H35.738v-31.785H71.62V295.463z"/><path style="fill:#FFFFFF;" d="M283.679,280.418c-7.624,0-13.826-6.202-13.826-13.826s6.203-13.826,13.826-13.826 s13.826,6.202,13.826,13.826S291.303,280.418,283.679,280.418z"/><path style="fill:#FFFFFF;" d="M347.679,137.418c-7.624,0-13.826-6.202-13.826-13.826s6.202-13.826,13.826-13.826 s13.826,6.202,13.826,13.826C361.505,131.216,355.303,137.418,347.679,137.418z"/><path style="fill:#FFFFFF;" d="M219.679,280.418c-7.624,0-13.826-6.202-13.826-13.826s6.202-13.826,13.826-13.826 s13.826,6.202,13.826,13.826S227.303,280.418,219.679,280.418z"/><path style="fill:#FFFFFF;" d="M155.678,137.418c-7.624,0-13.826-6.202-13.826-13.826s6.202-13.826,13.826-13.826 s13.826,6.202,13.826,13.826C169.504,131.216,163.302,137.418,155.678,137.418z"/><path style="fill:#FFFFFF;" d="M283.679,137.418c-7.624,0-13.826-6.202-13.826-13.826s6.203-13.826,13.826-13.826 s13.826,6.202,13.826,13.826C297.505,131.216,291.303,137.418,283.679,137.418z"/><path style="fill:#FFFFFF;" d="M219.679,137.418c-7.624,0-13.826-6.202-13.826-13.826s6.202-13.826,13.826-13.826 s13.826,6.202,13.826,13.826C233.505,131.216,227.303,137.418,219.679,137.418z"/><g> <path style="opacity:0.23;fill:#F2F2F2;enable-background:new ;" d="M403.68,96.27v54.64c0,13.08-10.6,23.68-23.68,23.68 H260.27l53.08-102H380C393.08,72.59,403.68,83.19,403.68,96.27z"/> <path style="opacity:0.23;fill:#F2F2F2;enable-background:new ;" d="M403.68,239.27v54.64c0,13.08-10.6,23.68-23.68,23.68 H185.86l53.08-102H380C393.08,215.59,403.68,226.19,403.68,239.27z"/> <path style="opacity:0.23;fill:#F2F2F2;enable-background:new ;" d="M23.68,215.59h16.95l-20.79,39.95L0,293.67v-54.4 C0,226.19,10.6,215.59,23.68,215.59z"/> <path style="opacity:0.23;fill:#F2F2F2;enable-background:new ;" d="M115.04,72.59l-13.36,25.68l-7.72,14.83l-11.83,22.74 l-20.17,38.75H23.68C10.6,174.59,0,163.99,0,150.91V96.27c0-13.08,10.6-23.68,23.68-23.68H115.04z"/> </g></symbol><symbol id="password-2" viewBox="0 0 512 512"><title>password-2</title><path style="fill:#C8C6CD;" d="M343.75,87.75v67.63h-30V87.75C313.75,55.91,287.84,30,256,30s-57.75,25.91-57.75,57.75v67.63h-30 V87.75C168.25,39.36,207.61,0,256,0S343.75,39.36,343.75,87.75z"/><path style="fill:#AEADB3;" d="M256,30V0c48.39,0,87.75,39.36,87.75,87.75v67.63h-30V87.75C313.75,55.91,287.84,30,256,30z"/><rect x="59.33" y="383" style="fill:#00D9E0;" width="393.34" height="129"/><rect x="256" y="383" style="fill:#00B7BE;" width="196.67" height="129"/><rect x="138.23" y="140.38" style="fill:#FFB74F;" width="235.54" height="203.22"/><g> <rect x="120.5" y="433.4" style="fill:#008878;" width="31" height="31"/> <rect x="180.5" y="433.4" style="fill:#008878;" width="31" height="31"/> <rect x="240.5" y="433.4" style="fill:#008878;" width="31" height="31"/> <rect x="300.5" y="433.4" style="fill:#008878;" width="31" height="31"/> <rect x="360.5" y="433.4" style="fill:#008878;" width="31" height="31"/> </g><g> <rect x="256" y="433.4" style="fill:#006659;" width="15.5" height="31"/> <rect x="300.5" y="433.4" style="fill:#006659;" width="31" height="31"/> </g><rect x="256" y="140.38" style="fill:#FF9A00;" width="117.77" height="203.22"/><rect x="360.5" y="433.4" style="fill:#006659;" width="31" height="31"/><path style="fill:#008878;" d="M278.5,226.5c0,6.66-2.9,12.64-7.5,16.76v35.41h-30v-35.41c-4.6-4.12-7.5-10.1-7.5-16.76 c0-12.43,10.08-22.5,22.5-22.5C268.42,204,278.5,214.07,278.5,226.5z"/><path style="fill:#006659;" d="M271,278.67h-15V204c12.42,0,22.5,10.07,22.5,22.5c0,6.66-2.9,12.64-7.5,16.76V278.67z"/></symbol><symbol id="password-1" viewBox="0 0 486.8 486.8"><title>password-1</title><path d="M80,370.406c-1.9-3.3-6.2-4.4-9.5-2.5l-17.4,10.1v-20.1c0-3.8-3.1-6.9-6.9-6.9c-3.8,0-6.9,3.1-6.9,6.9v20.1l-17.4-10.1 c-3.3-1.9-7.6-0.8-9.5,2.5s-0.8,7.6,2.5,9.5l17.5,10.2l-17.5,10.2c-3.3,1.9-4.4,6.2-2.5,9.5s6.2,4.4,9.5,2.5l17.4-10.1v20.1 c0,3.8,3.1,6.9,6.9,6.9c3.8,0,6.9-3.1,6.9-6.9v-20.1l17.4,10.1c3.3,1.9,7.6,0.8,9.5-2.5s0.8-7.6-2.5-9.5l-17.5-10.2l17.5-10.2 C80.8,377.906,82,373.706,80,370.406z"/><path d="M143.9,409.706c1.9,3.3,6.2,4.4,9.5,2.5l17.4-10.1v20.1c0,3.8,3.1,6.9,6.9,6.9c3.8,0,6.9-3.1,6.9-6.9v-20.1l17.4,10.1 c3.3,1.9,7.6,0.8,9.5-2.5s0.8-7.6-2.5-9.5l-17.5-10.2l17.5-10.2c3.3-1.9,4.4-6.2,2.5-9.5s-6.2-4.4-9.5-2.5l-17.4,10.1v-20.1 c0-3.8-3.1-6.9-6.9-6.9c-3.8,0-6.9,3.1-6.9,6.9v20.1l-17.4-10c-3.3-1.9-7.6-0.8-9.5,2.5s-0.8,7.6,2.5,9.5l17.5,10.2l-17.5,10.1 C143.1,402.106,142,406.406,143.9,409.706z"/><path d="M131.5,462.106v12.2c0,2.9,2.4,5.3,5.3,5.3h81.9c2.9,0,5.3-2.4,5.3-5.3v-12.2c0-2.9-2.4-5.3-5.3-5.3h-81.9 C133.8,456.806,131.5,459.206,131.5,462.106z"/><path d="M331.1,121.106h-0.6v-27.2c0-47.3-38.7-87.5-85.9-86.7c-45.9,0.8-83.1,38.4-83.1,84.5v2.6c0,3.9,3.2,7.1,7.1,7.1h22.7 c3.9,0,7.1-3.2,7.1-7.1v-0.8c0-25.4,19.1-47.7,44.5-49.3c27.6-1.7,50.6,20.2,50.6,47.4v29.4h-70v0.1h-64.7 c-12,0.4-21.7,10.1-21.7,22.2v123c0,12.3,10,22.3,22.3,22.3H331c12.3,0,22.3-10,22.3-22.3v-122.9 C353.4,131.106,343.4,121.106,331.1,121.106z M258.5,210.406c-1.7,1.2-2.2,2.5-2.2,4.5c0.1,9,0.1,18,0,27.1l0,0 c0.2,3.8-1.7,7.4-5.1,9.1c-7.9,4-15.8-1.6-15.8-9.1c0,0,0,0,0-0.1c0-9,0-18.1,0-27.1c0-1.8-0.4-3.1-2-4.3 c-8.2-6-10.9-16.3-6.8-25.4c4-8.8,13.7-14,22.8-12.1c10.2,2,17.3,10.3,17.4,20.4C267.1,200.506,264.2,206.306,258.5,210.406z"/><path d="M262.9,462.106v12.2c0,2.9,2.4,5.3,5.3,5.3h81.9c2.9,0,5.3-2.4,5.3-5.3v-12.2c0-2.9-2.4-5.3-5.3-5.3h-81.9 C265.3,456.806,262.9,459.206,262.9,462.106z"/><path d="M275.3,409.706c1.9,3.3,6.2,4.4,9.5,2.5l17.4-10.1v20.1c0,3.8,3.1,6.9,6.9,6.9s6.9-3.1,6.9-6.9v-20.1l17.4,10.1 c3.3,1.9,7.6,0.8,9.5-2.5s0.8-7.6-2.5-9.5l-17.5-10.2l17.5-10.2c3.3-1.9,4.4-6.2,2.5-9.5s-6.2-4.4-9.5-2.5l-17.4,10.1v-20.1 c0-3.8-3.1-6.9-6.9-6.9s-6.9,3.1-6.9,6.9v20.1l-17.4-10.1c-3.3-1.9-7.6-0.8-9.5,2.5s-0.8,7.6,2.5,9.5l17.5,10.2l-17.5,10.2 C274.5,402.106,273.4,406.406,275.3,409.706z"/><path d="M481.5,456.806h-81.9c-2.9,0-5.3,2.4-5.3,5.3v12.2c0,2.9,2.4,5.3,5.3,5.3h81.9c2.9,0,5.3-2.4,5.3-5.3v-12.2 C486.8,459.206,484.4,456.806,481.5,456.806z"/><path d="M5.3,479.606h81.9c2.9,0,5.3-2.4,5.3-5.3v-12.2c0-2.9-2.4-5.3-5.3-5.3H5.3c-2.9,0-5.3,2.4-5.3,5.3v12.2 C0,477.206,2.4,479.606,5.3,479.606z"/><path d="M406.8,409.706c1.9,3.3,6.2,4.4,9.5,2.5l17.4-10.1v20.1c0,3.8,3.1,6.9,6.9,6.9s6.9-3.1,6.9-6.9v-20.1l17.4,10.1 c3.3,1.9,7.6,0.8,9.5-2.5s0.8-7.6-2.5-9.5l-17.5-10.2l17.5-10.2c3.3-1.9,4.4-6.2,2.5-9.5s-6.2-4.4-9.5-2.5l-17.4,10.1v-20.1 c0-3.8-3.1-6.9-6.9-6.9s-6.9,3.1-6.9,6.9v20.1l-17.4-10.1c-3.3-1.9-7.6-0.8-9.5,2.5s-0.8,7.6,2.5,9.5l17.5,10.2l-17.5,10.2 C406,402.106,404.8,406.406,406.8,409.706z"/></symbol><symbol id="password" viewBox="0 0 58 58"><title>password</title><rect x="21" y="13.5" style="fill:#E4C05C;" width="15" height="12"/><path style="fill:#556080;" d="M34,13.5h-2V10c0-1.93-1.57-3.5-3.5-3.5S25,8.07,25,10v3.5h-2V10c0-3.033,2.468-5.5,5.5-5.5 S34,6.967,34,10V13.5z"/><path style="fill:#556080;" d="M48,53.5H10c-5.5,0-10-4.5-10-10v0c0-5.5,4.5-10,10-10h38c5.5,0,10,4.5,10,10v0 C58,49,53.5,53.5,48,53.5z"/><g> <path style="fill:#8697CB;" d="M14.553,40.605L12,41.882V38.5c0-0.552-0.447-1-1-1s-1,0.448-1,1v3.382l-2.553-1.276 c-0.493-0.248-1.094-0.046-1.342,0.447c-0.247,0.494-0.047,1.095,0.447,1.342l2.928,1.464L7.2,46.9 c-0.332,0.442-0.242,1.069,0.2,1.4c0.18,0.135,0.39,0.2,0.599,0.2c0.305,0,0.604-0.138,0.801-0.4l2.2-2.934l2.2,2.934 c0.196,0.262,0.496,0.4,0.801,0.4c0.209,0,0.419-0.065,0.599-0.2c0.442-0.331,0.532-0.958,0.2-1.4l-2.281-3.041l2.928-1.464 c0.494-0.247,0.694-0.848,0.447-1.342C15.646,40.559,15.047,40.358,14.553,40.605z"/> <path style="fill:#8697CB;" d="M26.553,40.605L24,41.882V38.5c0-0.552-0.447-1-1-1s-1,0.448-1,1v3.382l-2.553-1.276 c-0.493-0.248-1.094-0.046-1.342,0.447c-0.247,0.494-0.047,1.095,0.447,1.342l2.928,1.464L19.2,46.9 c-0.332,0.442-0.242,1.069,0.2,1.4c0.18,0.135,0.39,0.2,0.599,0.2c0.305,0,0.604-0.138,0.801-0.4l2.2-2.934l2.2,2.934 c0.196,0.262,0.496,0.4,0.801,0.4c0.209,0,0.419-0.065,0.599-0.2c0.442-0.331,0.532-0.958,0.2-1.4l-2.281-3.041l2.928-1.464 c0.494-0.247,0.694-0.848,0.447-1.342C27.647,40.559,27.047,40.358,26.553,40.605z"/> <path style="fill:#8697CB;" d="M38.553,40.605L36,41.882V38.5c0-0.552-0.447-1-1-1s-1,0.448-1,1v3.382l-2.553-1.276 c-0.495-0.248-1.094-0.046-1.342,0.447c-0.247,0.494-0.047,1.095,0.447,1.342l2.928,1.464L31.2,46.9 c-0.332,0.442-0.242,1.069,0.2,1.4c0.18,0.135,0.39,0.2,0.599,0.2c0.305,0,0.604-0.138,0.801-0.4l2.2-2.934l2.2,2.934 c0.196,0.262,0.496,0.4,0.801,0.4c0.209,0,0.419-0.065,0.599-0.2c0.442-0.331,0.532-0.958,0.2-1.4l-2.281-3.041l2.928-1.464 c0.494-0.247,0.694-0.848,0.447-1.342C39.646,40.559,39.047,40.358,38.553,40.605z"/> <path style="fill:#8697CB;" d="M51.895,41.053c-0.248-0.494-0.848-0.695-1.342-0.447L48,41.882V38.5c0-0.552-0.447-1-1-1 s-1,0.448-1,1v3.382l-2.553-1.276c-0.495-0.248-1.094-0.046-1.342,0.447c-0.247,0.494-0.047,1.095,0.447,1.342l2.928,1.464 L43.2,46.9c-0.332,0.442-0.242,1.069,0.2,1.4c0.18,0.135,0.39,0.2,0.599,0.2c0.305,0,0.604-0.138,0.801-0.4l2.2-2.934l2.2,2.934 c0.196,0.262,0.496,0.4,0.801,0.4c0.209,0,0.419-0.065,0.599-0.2c0.442-0.331,0.532-0.958,0.2-1.4l-2.281-3.041l2.928-1.464 C51.941,42.147,52.142,41.547,51.895,41.053z"/> </g></symbol><symbol id="login-1" viewBox="0 0 490.667 490.667"><title>login-1</title><path style="fill:#455A64;" d="M490.667,53.333v53.333H0V53.333C0,23.878,23.878,0,53.333,0h384 C466.789,0,490.667,23.878,490.667,53.333z"/><path style="fill:#CFD8DC;" d="M490.667,106.667v330.667c0,29.455-23.878,53.333-53.333,53.333h-384 C23.878,490.667,0,466.789,0,437.333V106.667H490.667z"/><path style="fill:#546E7A;" d="M117.333,384H224c5.891,0,10.667,4.776,10.667,10.667v42.667c0,5.891-4.776,10.667-10.667,10.667 H117.333c-5.891,0-10.667-4.776-10.667-10.667v-42.667C106.667,388.776,111.442,384,117.333,384z"/><path style="fill:#4CAF50;" d="M266.667,384h106.667c5.891,0,10.667,4.776,10.667,10.667v42.667c0,5.891-4.776,10.667-10.667,10.667 H266.667c-5.891,0-10.667-4.776-10.667-10.667v-42.667C256,388.776,260.776,384,266.667,384z"/><circle style="fill:#F44336;" cx="53.333" cy="53.333" r="10.667"/><circle style="fill:#FFC107;" cx="96" cy="53.333" r="10.667"/><circle style="fill:#4CAF50;" cx="138.667" cy="53.333" r="10.667"/><circle style="fill:#FAFAFA;" cx="245.333" cy="245.333" r="106.667"/><g> <path style="fill:#2196F3;" d="M245.333,362.667C180.532,362.667,128,310.135,128,245.333S180.532,128,245.333,128 s117.333,52.532,117.333,117.333C362.584,310.101,310.101,362.584,245.333,362.667z M245.333,149.333c-53.019,0-96,42.981-96,96 s42.981,96,96,96s96-42.981,96-96S298.353,149.333,245.333,149.333z"/> <circle style="fill:#2196F3;" cx="245.333" cy="224" r="42.667"/> <path style="fill:#2196F3;" d="M245.333,352c28.264,0.032,55.377-11.191,75.349-31.189c-14-41.62-59.089-64.011-100.71-50.01 c-23.575,7.93-42.08,26.436-50.01,50.01C189.941,340.814,217.062,352.037,245.333,352z"/> </g></symbol><symbol id="login" viewBox="0 0 490.667 490.667"><title>login</title><path style="fill:#CFD8DC;" d="M53.333,0h384c29.455,0,53.333,23.878,53.333,53.333v384c0,29.455-23.878,53.333-53.333,53.333h-384 C23.878,490.667,0,466.789,0,437.333v-384C0,23.878,23.878,0,53.333,0z"/><path style="fill:#64B5F6;" d="M96,298.667h298.667C424.122,298.667,448,322.545,448,352v42.667 C448,424.122,424.122,448,394.667,448H96c-29.455,0-53.333-23.878-53.333-53.333V352C42.667,322.545,66.545,298.667,96,298.667z"/><circle style="fill:#FAFAFA;" cx="245.333" cy="160" r="106.667"/><g> <path style="fill:#2196F3;" d="M245.333,277.333C180.532,277.333,128,224.801,128,160S180.532,42.667,245.333,42.667 S362.667,95.199,362.667,160C362.584,224.767,310.101,277.251,245.333,277.333z M245.333,64c-53.019,0-96,42.981-96,96 s42.981,96,96,96s96-42.981,96-96S298.353,64,245.333,64z"/> <circle style="fill:#2196F3;" cx="245.333" cy="138.667" r="42.667"/> <path style="fill:#2196F3;" d="M245.333,266.667c28.264,0.031,55.377-11.191,75.349-31.189c-14-41.62-59.089-64.011-100.71-50.01 c-23.575,7.93-42.08,26.436-50.01,50.01C189.941,255.481,217.062,266.704,245.333,266.667z"/> </g><g> <path style="fill:#455A64;" d="M146.219,344.448c-4.165-4.164-10.917-4.164-15.083,0l-13.803,13.803l-13.781-13.781 c-4.237-4.093-10.99-3.975-15.083,0.262c-3.993,4.134-3.993,10.687,0,14.821l13.781,13.781l-13.781,13.781 c-4.237,4.093-4.355,10.845-0.262,15.083c4.093,4.237,10.845,4.354,15.083,0.262c0.089-0.086,0.176-0.173,0.262-0.262 l13.781-13.781l13.781,13.781c4.093,4.237,10.845,4.354,15.083,0.262c4.237-4.093,4.354-10.845,0.262-15.083 c-0.086-0.089-0.173-0.176-0.262-0.262l-13.781-13.781l13.781-13.781c4.177-4.154,4.195-10.908,0.04-15.085 C146.231,344.461,146.225,344.454,146.219,344.448z"/> <path style="fill:#455A64;" d="M231.552,344.448c-4.165-4.164-10.917-4.164-15.083,0l-13.803,13.803l-13.781-13.781 c-4.237-4.093-10.99-3.975-15.083,0.262c-3.993,4.134-3.993,10.687,0,14.821l13.781,13.781l-13.781,13.781 c-4.237,4.093-4.355,10.845-0.262,15.083c4.093,4.237,10.845,4.354,15.083,0.262c0.089-0.086,0.176-0.173,0.262-0.262 l13.781-13.781l13.781,13.781c4.237,4.093,10.99,3.975,15.083-0.262c3.993-4.134,3.993-10.687,0-14.821l-13.781-13.781 l13.781-13.781c4.177-4.154,4.195-10.908,0.04-15.085C231.565,344.461,231.558,344.454,231.552,344.448z"/> <path style="fill:#455A64;" d="M316.885,344.448c-4.165-4.164-10.917-4.164-15.083,0L288,358.251l-13.781-13.781 c-4.237-4.093-10.99-3.975-15.083,0.262c-3.993,4.134-3.993,10.687,0,14.821l13.781,13.781l-13.781,13.781 c-4.237,4.093-4.355,10.845-0.262,15.083c4.093,4.237,10.845,4.354,15.083,0.262c0.089-0.086,0.176-0.173,0.262-0.262L288,388.416 l13.781,13.781c4.237,4.093,10.99,3.975,15.083-0.262c3.993-4.134,3.993-10.687,0-14.821l-13.781-13.781l13.781-13.781 c4.177-4.154,4.195-10.908,0.04-15.085C316.898,344.461,316.892,344.454,316.885,344.448z"/> <path style="fill:#455A64;" d="M388.416,373.333l13.781-13.781c4.093-4.237,3.976-10.99-0.261-15.083 c-4.134-3.993-10.688-3.993-14.821,0l-13.781,13.781l-13.781-13.781c-4.237-4.093-10.99-3.976-15.083,0.261 c-3.993,4.134-3.993,10.688,0,14.821l13.781,13.781l-13.781,13.781c-4.237,4.093-4.354,10.846-0.261,15.083 c4.093,4.237,10.846,4.354,15.083,0.261c0.089-0.086,0.176-0.173,0.261-0.261l13.781-13.781l13.781,13.781 c4.237,4.093,10.99,3.976,15.083-0.261c3.993-4.134,3.993-10.688,0-14.821L388.416,373.333z"/> </g></symbol><symbol id="user-11" viewBox="0 0 60 60"><title>user-11</title><g> <path style="fill:#8697CB;" d="M53.566,44.783l-9.552-4.776C42.78,39.39,42,38.128,42,36.748V33 c0.268-0.305,0.576-0.698,0.904-1.162c1.302-1.838,2.286-3.861,2.969-5.984C47.098,25.477,48,24.345,48,23v-4 c0-0.88-0.391-1.667-1-2.217V11c0,0,1.187-9-11-9c-12.188,0-11,9-11,9v5.783c-0.609,0.55-1,1.337-1,2.217v4 c0,1.054,0.554,1.981,1.383,2.517C26.382,29.869,29,33,29,33v3.655c0,1.333-0.728,2.56-1.899,3.198L18.18,44.72 C15.603,46.125,14,48.826,14,51.761V55h44v-3.043C58,48.919,56.283,46.142,53.566,44.783z"/> <path style="fill:#556080;" d="M18.18,44.72l5.946-3.243c-0.034-0.033-0.005-0.043,0.065-0.036l2.91-1.587 C28.272,39.215,29,37.989,29,36.655V33c0,0-1.062-1.275-2.092-3.323h0c0-0.001-0.001-0.002-0.001-0.003 c-0.135-0.268-0.268-0.551-0.399-0.844c-0.018-0.041-0.036-0.08-0.054-0.121c-0.133-0.303-0.263-0.616-0.386-0.944 c-0.008-0.021-0.015-0.044-0.023-0.065c-0.108-0.29-0.209-0.589-0.306-0.896c-0.026-0.084-0.052-0.167-0.077-0.251 c-0.101-0.338-0.196-0.682-0.278-1.038C24.554,24.981,24,24.054,24,23v-4c0-0.88,0.391-1.667,1-2.217v-5.648 C23.587,10.039,21.397,9,18,9C8.437,9,8,17,8,17v4.995c-0.526,0.475-1,1.154-1,1.914v3.455c0,0.911,0.479,1.711,1.194,2.174 C9.057,33.296,11.955,36,11.955,36v3.157c0,1.151-0.629,2.211-1.64,2.762L3.61,46.122C1.385,47.336,0,49.668,0,52.203V55h14 v-3.239C14,48.826,15.603,46.125,18.18,44.72z"/> </g><g> <circle style="fill:#ED7161;" cx="48" cy="46" r="12"/> <path style="fill:#FFFFFF;" d="M49.414,46l3.536-3.536c0.391-0.391,0.391-1.023,0-1.414s-1.023-0.391-1.414,0L48,44.586 l-3.536-3.536c-0.391-0.391-1.023-0.391-1.414,0s-0.391,1.023,0,1.414L46.586,46l-3.536,3.536c-0.391,0.391-0.391,1.023,0,1.414 c0.195,0.195,0.451,0.293,0.707,0.293s0.512-0.098,0.707-0.293L48,47.414l3.536,3.536c0.195,0.195,0.451,0.293,0.707,0.293 s0.512-0.098,0.707-0.293c0.391-0.391,0.391-1.023,0-1.414L49.414,46z"/> </g></symbol><symbol id="user-10" viewBox="0 0 59 59"><title>user-10</title><g> <path style="fill:#8697CB;" d="M53.566,44.283l-9.552-4.776C42.78,38.89,42,37.628,42,36.248V32.5 c0.268-0.305,0.576-0.698,0.904-1.162c1.302-1.838,2.286-3.861,2.969-5.984C47.098,24.977,48,23.845,48,22.5v-4 c0-0.88-0.391-1.667-1-2.217V10.5c0,0,1.187-9-11-9c-12.188,0-11,9-11,9v5.783c-0.609,0.55-1,1.337-1,2.217v4 c0,1.054,0.554,1.981,1.383,2.517C26.382,29.369,29,32.5,29,32.5v3.655c0,1.333-0.728,2.56-1.899,3.198L18.18,44.22 C15.603,45.625,14,48.326,14,51.261V54.5h44v-3.043C58,48.419,56.283,45.642,53.566,44.283z"/> <path style="fill:#556080;" d="M18.18,44.22l5.946-3.243c-0.034-0.033-0.005-0.043,0.065-0.036l2.91-1.587 C28.272,38.715,29,37.489,29,36.155V32.5c0,0-1.062-1.275-2.092-3.323h0c0-0.001-0.001-0.002-0.001-0.003 c-0.135-0.268-0.268-0.551-0.399-0.844c-0.018-0.041-0.036-0.08-0.054-0.121c-0.133-0.303-0.263-0.616-0.386-0.944 c-0.008-0.021-0.015-0.044-0.023-0.065c-0.108-0.29-0.209-0.589-0.306-0.896c-0.026-0.084-0.052-0.167-0.077-0.251 c-0.101-0.338-0.196-0.682-0.278-1.038C24.554,24.481,24,23.554,24,22.5v-4c0-0.88,0.391-1.667,1-2.217v-5.648 C23.587,9.539,21.397,8.5,18,8.5c-9.563,0-10,8-10,8v4.995c-0.526,0.475-1,1.154-1,1.914v3.455c0,0.911,0.479,1.711,1.194,2.174 c0.863,3.758,3.76,6.463,3.76,6.463v3.157c0,1.151-0.629,2.211-1.64,2.762L3.61,45.622C1.385,46.836,0,49.168,0,51.703V54.5h14 v-3.239C14,48.326,15.603,45.625,18.18,44.22z"/> </g><g> <circle style="fill:#B1D3EF;" cx="46.5" cy="45" r="12.5"/> <g> <path style="fill:#556080;" d="M56.193,45.519c-0.55-0.113-1.068,0.246-1.175,0.788c-0.82,4.168-4.402,7.193-8.519,7.193 c-3.351,0-6.347-2.006-7.789-5H44v-2h-6h-1h-1v8h2v-3.341c1.976,2.657,5.086,4.341,8.5,4.341c5.068,0,9.477-3.704,10.481-8.807 C57.087,46.151,56.735,45.625,56.193,45.519z"/> <path style="fill:#556080;" d="M55,35.498v3.341c-1.976-2.657-5.086-4.341-8.5-4.341c-5.068,0-9.477,3.704-10.481,8.807 c-0.106,0.542,0.246,1.068,0.788,1.174c0.55,0.113,1.068-0.246,1.175-0.788c0.82-4.168,4.402-7.193,8.519-7.193 c3.351,0,6.347,2.006,7.789,5H49v2h6h1h1v-8H55z"/> </g> </g></symbol><symbol id="user-9" viewBox="0 0 59 59"><title>user-9</title><g> <path style="fill:#8697CB;" d="M53.566,44.283l-9.552-4.776C42.78,38.89,42,37.628,42,36.248V32.5 c0.268-0.305,0.576-0.698,0.904-1.162c1.302-1.838,2.286-3.861,2.969-5.984C47.098,24.977,48,23.845,48,22.5v-4 c0-0.88-0.391-1.667-1-2.217V10.5c0,0,1.187-9-11-9c-12.188,0-11,9-11,9v5.783c-0.609,0.55-1,1.337-1,2.217v4 c0,1.054,0.554,1.981,1.383,2.517C26.382,29.369,29,32.5,29,32.5v3.655c0,1.333-0.728,2.56-1.899,3.198L18.18,44.22 C15.603,45.625,14,48.326,14,51.261V54.5h44v-3.043C58,48.419,56.283,45.642,53.566,44.283z"/> <path style="fill:#556080;" d="M18.18,44.22l5.946-3.243c-0.034-0.033-0.005-0.043,0.065-0.036l2.91-1.587 C28.272,38.715,29,37.489,29,36.155V32.5c0,0-1.062-1.275-2.092-3.323h0c0-0.001-0.001-0.002-0.001-0.003 c-0.135-0.268-0.268-0.551-0.399-0.844c-0.018-0.041-0.036-0.08-0.054-0.121c-0.133-0.303-0.263-0.616-0.386-0.944 c-0.008-0.021-0.015-0.044-0.023-0.065c-0.108-0.29-0.209-0.589-0.306-0.896c-0.026-0.084-0.052-0.167-0.077-0.251 c-0.101-0.338-0.196-0.682-0.278-1.038C24.554,24.481,24,23.554,24,22.5v-4c0-0.88,0.391-1.667,1-2.217v-5.648 C23.587,9.539,21.397,8.5,18,8.5c-9.563,0-10,8-10,8v4.995c-0.526,0.475-1,1.154-1,1.914v3.455c0,0.911,0.479,1.711,1.194,2.174 c0.863,3.758,3.76,6.463,3.76,6.463v3.157c0,1.151-0.629,2.211-1.64,2.762L3.61,45.622C1.385,46.836,0,49.168,0,51.703V54.5h14 v-3.239C14,48.326,15.603,45.625,18.18,44.22z"/> </g><g> <path style="fill:#556080;" d="M59,44.346l-1.444-0.278c-2.143-0.412-3.125-2.916-1.835-4.675l0.907-1.236l-1.958-1.958 l-1.217,0.825c-1.806,1.224-4.272,0.148-4.604-2.008L48.615,33.5h-2.769l-0.359,1.865c-0.403,2.096-2.818,3.096-4.585,1.899 l-1.572-1.065l-1.958,1.958l0.907,1.236c1.29,1.76,0.308,4.263-1.835,4.675L35,44.346v2.769l1.515,0.233 c2.157,0.332,3.232,2.797,2.008,4.604l-0.825,1.217l1.958,1.958l1.236-0.907c1.76-1.29,4.263-0.308,4.675,1.835l0.278,1.444h2.769 l0.164-1.066c0.339-2.204,2.896-3.263,4.694-1.944l0.869,0.638l1.958-1.958l-0.825-1.217c-1.224-1.806-0.148-4.272,2.008-4.604 L59,47.115V44.346z"/> <g> <circle style="fill:#FFFFFF;" cx="47" cy="45.5" r="4"/> <path style="fill:#ECF0F1;" d="M47,50.5c-2.757,0-5-2.243-5-5s2.243-5,5-5s5,2.243,5,5S49.757,50.5,47,50.5z M47,42.5 c-1.654,0-3,1.346-3,3s1.346,3,3,3s3-1.346,3-3S48.654,42.5,47,42.5z"/> </g> </g></symbol><symbol id="user-8" viewBox="0 0 59.27 59.27"><title>user-8</title><g> <path style="fill:#8697CB;" d="M53.566,44.427l-9.552-4.776C42.78,39.034,42,37.772,42,36.392v-3.748 c0.268-0.305,0.576-0.698,0.904-1.162c1.302-1.838,2.286-3.861,2.969-5.984C47.098,25.121,48,23.989,48,22.644v-4 c0-0.88-0.391-1.667-1-2.217v-5.783c0,0,1.187-9-11-9c-12.188,0-11,9-11,9v5.783c-0.609,0.55-1,1.337-1,2.217v4 c0,1.054,0.554,1.981,1.383,2.517C26.382,29.513,29,32.644,29,32.644v3.655c0,1.333-0.728,2.56-1.899,3.198l-8.921,4.866 C15.603,45.77,14,48.47,14,51.406v3.239h44v-3.043C58,48.563,56.283,45.786,53.566,44.427z"/> <path style="fill:#556080;" d="M18.18,44.364l5.946-3.243c-0.034-0.033-0.005-0.043,0.065-0.036l2.91-1.587 C28.272,38.859,29,37.633,29,36.299v-3.655c0,0-1.062-1.275-2.092-3.323h0c0-0.001-0.001-0.002-0.001-0.003 c-0.135-0.268-0.268-0.551-0.399-0.844c-0.018-0.041-0.036-0.08-0.054-0.121c-0.133-0.303-0.263-0.616-0.386-0.944 c-0.008-0.021-0.015-0.044-0.023-0.065c-0.108-0.29-0.209-0.589-0.306-0.896c-0.026-0.084-0.052-0.167-0.077-0.251 c-0.101-0.338-0.196-0.682-0.278-1.038C24.554,24.626,24,23.698,24,22.644v-4c0-0.88,0.391-1.667,1-2.217V10.78 c-1.413-1.097-3.603-2.136-7-2.136c-9.563,0-10,8-10,8v4.995c-0.526,0.475-1,1.154-1,1.914v3.455c0,0.911,0.479,1.711,1.194,2.174 c0.863,3.758,3.76,6.463,3.76,6.463v3.157c0,1.151-0.629,2.211-1.64,2.762L3.61,45.766C1.385,46.98,0,49.312,0,51.847v2.797h14 v-3.239C14,48.47,15.603,45.77,18.18,44.364z"/> </g><g> <polygon style="fill:#EDDCC7;" points="37.836,48.133 37.828,48.14 35.84,55.43 40.487,50.783 "/> <path style="fill:#D75A4A;" d="M57.086,34.184l-1.247-1.247c-0.775-0.775-2.032-0.775-2.807,0l-3.582,3.582L52.1,39.17 L57.086,34.184z"/> <rect x="43.094" y="35.439" transform="matrix(0.7071 0.7071 -0.7071 0.7071 44.0369 -19.0122)" style="fill:#F29C21;" width="3.749" height="16.424"/> <polygon style="fill:#D6C4B1;" points="43.485,53.797 43.493,53.79 40.487,50.783 35.84,55.43 35.707,55.918 "/> <path style="fill:#A34740;" d="M55.107,42.176l3.582-3.582c0.775-0.775,0.775-2.032,0-2.807l-1.602-1.602L52.1,39.17 L55.107,42.176z"/> <rect x="45.671" y="38.267" transform="matrix(-0.7071 -0.7071 0.7071 -0.7071 48.7273 113.1428)" style="fill:#E18C25;" width="4.251" height="16.424"/> <path style="fill:#5E5E5E;" d="M35,57.626c-0.256,0-0.512-0.098-0.707-0.293c-0.391-0.391-0.391-1.023,0-1.414l2.207-2.207 c0.391-0.391,1.023-0.391,1.414,0s0.391,1.023,0,1.414l-2.207,2.207C35.512,57.528,35.256,57.626,35,57.626z"/> </g></symbol><symbol id="user-7" viewBox="0 0 60 60"><title>user-7</title><g> <path style="fill:#8697CB;" d="M53.566,44.783l-9.552-4.776C42.78,39.39,42,38.128,42,36.748V33 c0.268-0.305,0.576-0.698,0.904-1.162c1.302-1.838,2.286-3.861,2.969-5.984C47.098,25.477,48,24.345,48,23v-4 c0-0.88-0.391-1.667-1-2.217V11c0,0,1.187-9-11-9c-12.188,0-11,9-11,9v5.783c-0.609,0.55-1,1.337-1,2.217v4 c0,1.054,0.554,1.981,1.383,2.517C26.382,29.869,29,33,29,33v3.655c0,1.333-0.728,2.56-1.899,3.198L18.18,44.72 C15.603,46.125,14,48.826,14,51.761V55h44v-3.043C58,48.919,56.283,46.142,53.566,44.783z"/> <path style="fill:#556080;" d="M18.18,44.72l5.946-3.243c-0.034-0.033-0.005-0.043,0.065-0.036l2.91-1.587 C28.272,39.215,29,37.989,29,36.655V33c0,0-1.062-1.275-2.092-3.323h0c0-0.001-0.001-0.002-0.001-0.003 c-0.135-0.268-0.268-0.551-0.399-0.844c-0.018-0.041-0.036-0.08-0.054-0.121c-0.133-0.303-0.263-0.616-0.386-0.944 c-0.008-0.021-0.015-0.044-0.023-0.065c-0.108-0.29-0.209-0.589-0.306-0.896c-0.026-0.084-0.052-0.167-0.077-0.251 c-0.101-0.338-0.196-0.682-0.278-1.038C24.554,24.981,24,24.054,24,23v-4c0-0.88,0.391-1.667,1-2.217v-5.648 C23.587,10.039,21.397,9,18,9C8.437,9,8,17,8,17v4.995c-0.526,0.475-1,1.154-1,1.914v3.455c0,0.911,0.479,1.711,1.194,2.174 C9.057,33.296,11.955,36,11.955,36v3.157c0,1.151-0.629,2.211-1.64,2.762L3.61,46.122C1.385,47.336,0,49.668,0,52.203V55h14 v-3.239C14,48.826,15.603,46.125,18.18,44.72z"/> </g><g> <circle style="fill:#26B999;" cx="48" cy="46" r="12"/> <path style="fill:#FFFFFF;" d="M54.571,40.179c-0.455-0.316-1.077-0.204-1.392,0.25l-5.596,8.04l-3.949-3.242 c-0.426-0.351-1.057-0.288-1.407,0.139c-0.351,0.427-0.289,1.057,0.139,1.407l4.786,3.929c0.18,0.147,0.404,0.227,0.634,0.227 c0.045,0,0.091-0.003,0.137-0.009c0.276-0.039,0.524-0.19,0.684-0.419l6.214-8.929C55.136,41.118,55.024,40.495,54.571,40.179z"/> </g></symbol><symbol id="coin-1" viewBox="0 0 60 60"><title>coin-1</title><path id="XMLID_122_" style="fill:#D1D4D2;" d="M56.705,54.4l-3-4c-0.016-0.021-0.038-0.033-0.055-0.052 c-0.035-0.04-0.073-0.073-0.114-0.107c-0.034-0.025-0.067-0.049-0.103-0.069c-0.069-0.044-0.137-0.083-0.215-0.109 c-0.002-0.001-0.004-0.003-0.006-0.003c-0.013-0.005-0.025-0.002-0.038-0.006c-0.002,0-0.004,0-0.006-0.001 C53.082,50.029,52.998,50,52.905,50h-5c-0.553,0-1,0.448-1,1s0.447,1,1,1h3.498c-1.284,2.987-3.356,6-6.498,6 c-2.158,0-4.291-1.932-6.007-5.439c-0.243-0.496-0.841-0.7-1.338-0.459c-0.496,0.242-0.701,0.841-0.459,1.338 c2.653,5.422,5.708,6.56,7.804,6.56c2.419,0,5.717-1.277,8.242-7.011l1.958,2.611c0.197,0.262,0.496,0.4,0.801,0.4 c0.209,0,0.419-0.065,0.599-0.2C56.947,55.469,57.037,54.842,56.705,54.4"/><path id="XMLID_121_" style="fill:#D1D4D2;" d="M14.095,0c-2.419,0-5.717,1.278-8.242,7.011L3.894,4.4 c-0.331-0.441-0.956-0.532-1.4-0.2c-0.442,0.331-0.531,0.958-0.2,1.4l3,4c0.013,0.017,0.033,0.023,0.047,0.039 c0.069,0.081,0.151,0.144,0.242,0.2C5.617,9.86,5.644,9.888,5.68,9.904c0.033,0.015,0.068,0.021,0.103,0.033 C5.785,9.939,5.787,9.94,5.789,9.94c0.03,0.011,0.06,0.008,0.09,0.016C5.95,9.973,6.018,10,6.095,10h0.031c0.002,0,0.002,0,0.002,0 c0.002,0,0.003,0,0.004,0h4.963c0.552,0,1-0.448,1-1s-0.448-1-1-1H7.598c1.283-2.987,3.355-6,6.497-6 c2.158,0,4.291,1.932,6.007,5.439c0.243,0.496,0.841,0.702,1.338,0.459c0.496-0.242,0.701-0.841,0.459-1.337 C19.246,1.138,16.19,0,14.095,0"/><path id="XMLID_120_" style="fill:#FCC62D;" d="M59,26c0,7.732-12.984,14-29,14C13.984,40,1,33.732,1,26c0-7.732,12.984-14,29-14 C46.016,12,59,18.268,59,26"/><path id="XMLID_119_" style="fill:#FFD949;" d="M30,36C14.739,36,5,30.077,5,26s9.739-11,25-11c15.261,0,25,6.923,25,11 S45.261,36,30,36"/><path id="XMLID_118_" style="fill:#F0C41B;" d="M38.541,26.713c0.997-0.211,1.582-0.826,1.366-1.527l-0.23-0.749 c-0.17-0.55-0.828-1.01-1.634-1.238c-1.095-2.343-3.891-3.191-8.043-3.191c-0.197,0-0.39,0.004-0.579,0.012 c-1.417,0.059-2.831-0.079-3.934-0.482c-0.449-0.164-0.815-0.336-1.057-0.515c-0.11-0.08-0.374-0.029-0.374,0.073 c0,0.178,0.013,0.389,0.052,0.622c0.151,0.907-0.029,0.771-0.926,1.676c-0.521,0.526-0.935,1.135-1.235,1.807 c-0.802,0.229-1.456,0.688-1.624,1.236l-0.231,0.749c-0.215,0.702,0.369,1.317,1.366,1.527c0.285,1.792,1.503,3.37,4.162,4.237 l-0.146,1.261c-0.038,0.337-0.33,0.649-0.753,0.801l-5.361,1.935C22.491,35.604,26.06,36,30,36c3.884,0,7.408-0.385,10.507-1.024 l-5.244-1.961c-0.415-0.155-0.699-0.464-0.737-0.795l-0.146-1.27C37.038,30.083,38.256,28.505,38.541,26.713"/><path id="XMLID_117_" style="fill:#E4AF18;" d="M30,40C13.984,40,1,33.732,1,26v9c0,7.732,12.984,14,29,14c16.016,0,29-6.268,29-14 v-9C59,33.732,46.016,40,30,40"/><path id="XMLID_116_" style="fill:#CE9912;" d="M4,32.202v9c0.591,0.576,1.257,1.13,2,1.658v-9C5.257,33.332,4.591,32.778,4,32.202 "/><path id="XMLID_115_" style="fill:#CE9912;" d="M54,33.859v9c0.743-0.527,1.409-1.082,2-1.658v-9 C55.409,32.778,54.743,33.332,54,33.859"/><path id="XMLID_114_" style="fill:#CE9912;" d="M8,35.116v9c0.632,0.355,1.299,0.694,2,1.017v-9C9.299,35.81,8.632,35.471,8,35.116 "/><path id="XMLID_113_" style="fill:#CE9912;" d="M50,36.133v9c0.701-0.323,1.368-0.662,2-1.017v-9 C51.368,35.471,50.701,35.81,50,36.133"/><path id="XMLID_112_" style="fill:#CE9912;" d="M12,36.973v9c0.646,0.247,1.311,0.482,2,0.703v-9 C13.311,37.455,12.646,37.22,12,36.973"/><path id="XMLID_111_" style="fill:#CE9912;" d="M46,37.675v9c0.689-0.22,1.354-0.456,2-0.703v-9 C47.354,37.22,46.689,37.455,46,37.675"/><path id="XMLID_110_" style="fill:#CE9912;" d="M16,38.261v9c0.651,0.174,1.319,0.334,2,0.483v-9 C17.319,38.596,16.651,38.436,16,38.261"/><path id="XMLID_109_" style="fill:#CE9912;" d="M42,38.744v9c0.681-0.148,1.349-0.309,2-0.482v-9 C43.349,38.435,42.681,38.596,42,38.744"/><path id="XMLID_108_" style="fill:#CE9912;" d="M21,39.309v9c0.657,0.104,1.323,0.197,2,0.278v-9 C22.323,39.506,21.657,39.413,21,39.309"/><path id="XMLID_107_" style="fill:#CE9912;" d="M37,39.587v9c0.677-0.081,1.343-0.174,2-0.278v-9 C38.343,39.413,37.677,39.506,37,39.587"/><path id="XMLID_106_" style="fill:#CE9912;" d="M26,39.864v9c0.66,0.044,1.327,0.077,2,0.099v-9 C27.327,39.941,26.66,39.908,26,39.864"/><path id="XMLID_105_" style="fill:#CE9912;" d="M32,39.963v9c0.673-0.021,1.34-0.055,2-0.099v-9 C33.34,39.908,32.673,39.941,32,39.963"/></symbol><symbol id="time-is-money" viewBox="0 0 58 58"><title>time-is-money</title><path id="XMLID_117_" style="fill:#F5EFCA;" d="M58,29c0,16.016-12.984,29-29,29C12.984,58,0,45.016,0,29S12.984,0,29,0 C45.016,0,58,12.984,58,29"/><path id="XMLID_116_" style="fill:#56B46F;" d="M48,56.223c-2.757,0-5-2.243-5-5c0-0.553,0.448-1,1-1c0.552,0,1,0.447,1,1 c0,1.654,1.346,3,3,3c0.884,0,1.72-0.388,2.292-1.064c0.256-0.303,0.374-0.696,0.331-1.106c-0.046-0.438-0.272-0.847-0.622-1.118 l-5.23-4.068c-0.777-0.605-1.282-1.513-1.383-2.492c-0.1-0.956,0.182-1.881,0.794-2.603C45.134,40.646,46.526,40,48,40 c2.757,0,5,2.244,5,5c0,0.553-0.448,1-1,1c-0.552,0-1-0.447-1-1c0-1.654-1.346-3-3-3c-0.884,0-1.72,0.388-2.292,1.064 c-0.256,0.303-0.374,0.694-0.331,1.104c0.046,0.439,0.272,0.848,0.622,1.12l5.23,4.069c0.777,0.604,1.281,1.511,1.383,2.488 c0.1,0.957-0.182,1.882-0.793,2.606C50.866,55.577,49.474,56.223,48,56.223"/><path id="XMLID_115_" style="fill:#56B46F;" d="M48,58c-0.552,0-1-0.447-1-1V39c0-0.553,0.448-1,1-1c0.552,0,1,0.447,1,1v18 C49,57.553,48.552,58,48,58"/><path id="XMLID_112_" style="fill:#F0C41B;" d="M30,25.021V14.879c0-0.553-0.448-1-1-1c-0.552,0-1,0.447-1,1v10.142 c-1.399,0.364-2.494,1.459-2.858,2.858H18c-0.552,0-1,0.447-1,1c0,0.553,0.448,1,1,1h7.142c0.447,1.72,2,3,3.858,3 c2.206,0,4-1.794,4-4C33,27.02,31.72,25.468,30,25.021 M29,30.879c-1.103,0-2-0.897-2-2c0-1.103,0.897-2,2-2s2,0.897,2,2 C31,29.982,30.103,30.879,29,30.879"/><path id="XMLID_111_" style="fill:#806F5E;" d="M29,8.879c-0.552,0-1-0.447-1-1v-1c0-0.553,0.448-1,1-1c0.552,0,1,0.447,1,1v1 C30,8.432,29.552,8.879,29,8.879"/><path id="XMLID_110_" style="fill:#806F5E;" d="M29,51.879c-0.552,0-1-0.447-1-1v-1c0-0.553,0.448-1,1-1c0.552,0,1,0.447,1,1v1 C30,51.432,29.552,51.879,29,51.879"/><path id="XMLID_109_" style="fill:#806F5E;" d="M51,29.879h-1c-0.552,0-1-0.447-1-1c0-0.553,0.448-1,1-1h1c0.552,0,1,0.447,1,1 C52,29.432,51.552,29.879,51,29.879"/><path id="XMLID_108_" style="fill:#806F5E;" d="M8,29.879H7c-0.552,0-1-0.447-1-1c0-0.553,0.448-1,1-1h1c0.552,0,1,0.447,1,1 C9,29.432,8.552,29.879,8,29.879"/><path id="XMLID_107_" style="fill:#806F5E;" d="M43.849,15.029c-0.256,0-0.512-0.098-0.707-0.293c-0.391-0.391-0.391-1.023,0-1.414 l0.707-0.707c0.391-0.391,1.023-0.391,1.414,0c0.391,0.391,0.391,1.023,0,1.414l-0.707,0.707 C44.361,14.932,44.105,15.029,43.849,15.029"/><path id="XMLID_106_" style="fill:#806F5E;" d="M13.444,45.435c-0.256,0-0.512-0.098-0.707-0.293c-0.391-0.391-0.391-1.023,0-1.414 l0.707-0.707c0.391-0.391,1.023-0.391,1.414,0c0.391,0.391,0.391,1.023,0,1.414l-0.707,0.707 C13.956,45.337,13.7,45.435,13.444,45.435"/><path id="XMLID_105_" style="fill:#806F5E;" d="M14.151,15.029c-0.256,0-0.512-0.098-0.707-0.293l-0.707-0.707 c-0.391-0.391-0.391-1.023,0-1.414c0.391-0.391,1.023-0.391,1.414,0l0.707,0.707c0.391,0.391,0.391,1.023,0,1.414 C14.663,14.932,14.407,15.029,14.151,15.029"/></symbol><symbol id="coin" viewBox="0 0 56 56"><title>coin</title><path id="XMLID_99_" style="fill:#FFD949;" d="M31,56C17.469,56,6.5,43.464,6.5,28S17.469,0,31,0c13.531,0,24.5,12.536,24.5,28 S44.531,56,31,56"/><path id="XMLID_132_" style="fill:#F4BF1A;" d="M6.5,28C6.5,13.698,15.885,1.908,28,0.216C27.016,0.079,26.016,0,25,0 C11.469,0,0.5,12.536,0.5,28S11.469,56,25,56c1.016,0,2.016-0.079,3-0.216C15.885,54.092,6.5,42.302,6.5,28"/><path id="XMLID_115_" style="fill:#F4BF1A;" d="M31.085,50.524h-0.086c-0.7,0-1.405-0.042-2.095-0.124 c-0.549-0.066-0.94-0.563-0.875-1.112c0.066-0.549,0.567-0.932,1.112-0.874c0.612,0.073,1.237,0.11,1.858,0.11 c0.553,0,1.043,0.448,1.043,1C32.042,50.076,31.639,50.524,31.085,50.524 M36.9,49.447c-0.404,0-0.785-0.247-0.936-0.648 c-0.195-0.517,0.066-1.094,0.583-1.288c0.576-0.217,1.151-0.472,1.706-0.757c0.492-0.254,1.094-0.059,1.347,0.433 c0.252,0.491,0.058,1.094-0.434,1.346c-0.623,0.32-1.266,0.604-1.914,0.849C37.137,49.426,37.018,49.447,36.9,49.447 M23.365,48.683c-0.152,0-0.307-0.035-0.452-0.109c-0.615-0.313-1.224-0.664-1.809-1.048c-0.462-0.302-0.591-0.921-0.289-1.384 c0.304-0.461,0.922-0.591,1.385-0.289c0.523,0.343,1.068,0.659,1.618,0.938c0.492,0.25,0.689,0.852,0.439,1.344 C24.081,48.483,23.729,48.683,23.365,48.683 M43.475,45.125c-0.254,0-0.509-0.097-0.704-0.29c-0.392-0.389-0.395-1.022-0.006-1.414 c0.435-0.438,0.858-0.91,1.257-1.402c0.349-0.428,0.979-0.493,1.407-0.145c0.428,0.348,0.494,0.978,0.145,1.407 c-0.441,0.542-0.908,1.063-1.389,1.548C43.989,45.026,43.731,45.125,43.475,45.125 M17.257,43.717 c-0.289,0-0.576-0.125-0.774-0.365c-0.434-0.53-0.851-1.09-1.238-1.665c-0.309-0.458-0.188-1.08,0.27-1.389 c0.457-0.309,1.079-0.189,1.388,0.27c0.353,0.524,0.732,1.034,1.127,1.515c0.35,0.427,0.288,1.057-0.139,1.408 C17.706,43.643,17.48,43.717,17.257,43.717 M47.871,38.58c-0.134,0-0.269-0.027-0.399-0.083c-0.507-0.221-0.738-0.81-0.518-1.317 c0.251-0.574,0.48-1.17,0.681-1.769c0.176-0.522,0.743-0.805,1.267-0.629c0.523,0.177,0.805,0.743,0.629,1.267 c-0.22,0.653-0.47,1.303-0.743,1.93C48.623,38.355,48.255,38.58,47.871,38.58 M13.445,36.813c-0.416,0-0.805-0.263-0.947-0.678 c-0.221-0.648-0.417-1.315-0.583-1.983c-0.134-0.536,0.192-1.078,0.728-1.211c0.534-0.136,1.079,0.192,1.212,0.728 c0.153,0.613,0.333,1.226,0.536,1.82c0.178,0.523-0.101,1.091-0.623,1.269C13.662,36.795,13.552,36.813,13.445,36.813 M49.76,30.916c-0.026,0-0.052-0.001-0.078-0.003c-0.551-0.043-0.962-0.524-0.92-1.075c0.047-0.606,0.071-1.225,0.071-1.838 c0-0.552,0.448-1.032,1-1.032c0.552,0,1,0.415,1,0.967V28c0,0.665-0.026,1.335-0.077,1.993 C50.716,30.517,50.277,30.916,49.76,30.916 M12.166,29.011c-0.552,0-1-0.437-1-0.989V28c0-0.682,0.027-1.368,0.08-2.037 c0.044-0.55,0.523-0.958,1.076-0.918c0.551,0.044,0.962,0.526,0.918,1.076c-0.049,0.618-0.074,1.25-0.074,1.879 C13.166,28.552,12.718,29.011,12.166,29.011 M49.102,23.048c-0.447,0-0.854-0.302-0.968-0.755c-0.155-0.615-0.336-1.227-0.54-1.821 c-0.179-0.522,0.1-1.091,0.622-1.27c0.523-0.181,1.092,0.099,1.27,0.622c0.222,0.646,0.419,1.312,0.587,1.979 c0.135,0.536-0.19,1.079-0.725,1.214C49.267,23.039,49.185,23.048,49.102,23.048 M13.432,21.231c-0.107,0-0.215-0.018-0.322-0.054 c-0.523-0.177-0.803-0.745-0.626-1.268c0.221-0.65,0.472-1.299,0.747-1.928c0.222-0.507,0.81-0.736,1.317-0.516 c0.506,0.221,0.737,0.811,0.516,1.317c-0.253,0.577-0.483,1.173-0.685,1.769C14.236,20.968,13.849,21.231,13.432,21.231 M45.902,15.838c-0.321,0-0.635-0.154-0.829-0.44c-0.354-0.522-0.734-1.031-1.13-1.512c-0.351-0.426-0.29-1.057,0.136-1.408 c0.426-0.351,1.057-0.29,1.408,0.136c0.435,0.529,0.853,1.088,1.242,1.663c0.31,0.457,0.19,1.079-0.267,1.389 C46.29,15.782,46.096,15.838,45.902,15.838 M17.228,14.317c-0.222,0-0.446-0.074-0.632-0.226c-0.428-0.349-0.491-0.979-0.141-1.407 c0.441-0.54,0.909-1.06,1.391-1.545c0.39-0.39,1.023-0.393,1.414-0.004c0.392,0.39,0.394,1.022,0.005,1.414 c-0.436,0.439-0.861,0.91-1.262,1.401C17.807,14.192,17.519,14.317,17.228,14.317 M40.31,10.287c-0.187,0-0.376-0.052-0.544-0.162 c-0.523-0.341-1.069-0.655-1.622-0.934c-0.492-0.249-0.69-0.85-0.441-1.343c0.249-0.491,0.849-0.692,1.343-0.442 c0.618,0.311,1.227,0.662,1.811,1.043c0.463,0.302,0.594,0.922,0.292,1.384C40.957,10.128,40.638,10.287,40.31,10.287 M23.329,9.337c-0.364,0-0.715-0.199-0.892-0.546c-0.251-0.492-0.055-1.094,0.437-1.345c0.623-0.317,1.267-0.602,1.916-0.844 c0.516-0.194,1.093,0.068,1.287,0.586c0.193,0.517-0.069,1.093-0.587,1.287c-0.578,0.216-1.153,0.469-1.709,0.753 C23.637,9.302,23.481,9.337,23.329,9.337 M32.935,7.588c-0.039,0-0.078-0.002-0.117-0.007c-0.602-0.07-1.214-0.105-1.819-0.105 c-0.552,0-1.021-0.448-1.021-1c0-0.552,0.427-1,0.979-1h0.042c0.682,0,1.372,0.04,2.05,0.119c0.548,0.063,0.942,0.559,0.878,1.108 C33.869,7.213,33.435,7.588,32.935,7.588"/><path id="XMLID_114_" style="fill:#DCA815;" d="M6.498,29H0.5c0.02,0.673,0.058,1.34,0.119,2h6.003 C6.56,30.34,6.519,29.673,6.498,29"/><path id="XMLID_113_" style="fill:#DCA815;" d="M6.727,24H0.731c-0.083,0.659-0.143,1.327-0.184,2h5.999 C6.588,25.327,6.644,24.659,6.727,24"/><path id="XMLID_112_" style="fill:#DCA815;" d="M7.048,34H1.047c0.13,0.676,0.28,1.343,0.451,2h5.999 C7.327,35.343,7.178,34.676,7.048,34"/><path id="XMLID_111_" style="fill:#DCA815;" d="M8.447,39H2.443c0.255,0.682,0.537,1.347,0.837,2h6.001 C8.981,40.348,8.702,39.681,8.447,39"/><path id="XMLID_110_" style="fill:#DCA815;" d="M7.772,19H1.779c-0.195,0.657-0.377,1.322-0.529,2h6.007 C7.409,20.324,7.578,19.655,7.772,19"/><path id="XMLID_109_" style="fill:#DCA815;" d="M9.764,14h-6c-0.33,0.651-0.641,1.317-0.925,2h6.004 C9.127,15.318,9.434,14.651,9.764,14"/><path id="XMLID_108_" style="fill:#DCA815;" d="M13.845,8H7.838c-0.569,0.636-1.11,1.303-1.622,2h6.005 C12.734,9.303,13.276,8.636,13.845,8"/><path id="XMLID_107_" style="fill:#DCA815;" d="M19.96,3h-6.013c-1.022,0.59-2.002,1.258-2.936,2h6.009 C17.955,4.258,18.937,3.59,19.96,3"/><path id="XMLID_106_" style="fill:#DCA815;" d="M11.519,45H5.516c0.464,0.693,0.954,1.36,1.472,2h6.007 C12.477,46.36,11.984,45.693,11.519,45"/><path id="XMLID_105_" style="fill:#DCA815;" d="M9.832,50c0.803,0.723,1.644,1.394,2.524,2h6.014c-0.884-0.607-1.734-1.274-2.54-2 H9.832z"/></symbol><symbol id="user-6" viewBox="0 0 59 59"><title>user-6</title><g> <path style="fill:#ECF0F1;" d="M18.613,42.552l-7.907,4.313c-0.464,0.253-0.881,0.564-1.269,0.903 C14.047,51.655,19.998,54,26.5,54c6.454,0,12.367-2.31,16.964-6.144c-0.424-0.358-0.884-0.68-1.394-0.934l-8.467-4.233 c-1.094-0.547-1.785-1.665-1.785-2.888v-3.322c0.238-0.271,0.51-0.619,0.801-1.03c1.154-1.63,2.027-3.423,2.632-5.304 c1.086-0.335,1.886-1.338,1.886-2.53v-3.546c0-0.78-0.347-1.477-0.886-1.965v-5.126c0,0,1.053-7.977-9.75-7.977 s-9.75,7.977-9.75,7.977v5.126c-0.54,0.488-0.886,1.185-0.886,1.965v3.546c0,0.934,0.491,1.756,1.226,2.231 c0.886,3.857,3.206,6.633,3.206,6.633v3.24C20.296,40.899,19.65,41.987,18.613,42.552z"/> <g> <path style="fill:#556080;" d="M26.953,1.004C12.32,0.754,0.254,12.414,0.004,27.047C-0.138,35.344,3.56,42.801,9.448,47.76 c0.385-0.336,0.798-0.644,1.257-0.894l7.907-4.313c1.037-0.566,1.683-1.653,1.683-2.835v-3.24c0,0-2.321-2.776-3.206-6.633 c-0.734-0.475-1.226-1.296-1.226-2.231v-3.546c0-0.78,0.347-1.477,0.886-1.965v-5.126c0,0-1.053-7.977,9.75-7.977 s9.75,7.977,9.75,7.977v5.126c0.54,0.488,0.886,1.185,0.886,1.965v3.546c0,1.192-0.8,2.195-1.886,2.53 c-0.605,1.881-1.478,3.674-2.632,5.304c-0.291,0.411-0.563,0.759-0.801,1.03V39.8c0,1.223,0.691,2.342,1.785,2.888l8.467,4.233 c0.508,0.254,0.967,0.575,1.39,0.932c5.71-4.762,9.399-11.882,9.536-19.9C53.246,13.32,41.587,1.254,26.953,1.004z"/> </g> </g><g> <path style="fill:#EFC41A;" d="M57.761,58H34.07c-0.955,0-1.55-1.036-1.069-1.861l11.845-20.306c0.478-0.819,1.66-0.819,2.138,0 L58.83,56.139C59.311,56.964,58.716,58,57.761,58z"/> <path style="fill:#FFFFFF;" d="M46,51c-0.552,0-1-0.448-1-1v-8c0-0.552,0.448-1,1-1s1,0.448,1,1v8C47,50.552,46.553,51,46,51z"/> <path style="fill:#FFFFFF;" d="M46,55c-0.26,0-0.52-0.11-0.71-0.29C45.11,54.52,45,54.26,45,54c0-0.26,0.11-0.52,0.29-0.71 c0.38-0.37,1.04-0.37,1.42,0C46.89,53.48,47,53.74,47,54c0,0.26-0.11,0.52-0.29,0.71C46.52,54.89,46.27,55,46,55z"/> </g></symbol><symbol id="agenda" viewBox="0 0 58 58"><title>agenda</title><rect x="1.5" style="fill:#CBB292;" width="44" height="58"/><rect x="1.5" style="fill:#7F6E5D;" width="8" height="58"/><rect x="16.5" y="10" style="fill:#EFEBDE;" width="22" height="12"/><rect x="20.5" y="13" style="fill:#D5D0BB;" width="14" height="2"/><rect x="20.5" y="17" style="fill:#D5D0BB;" width="14" height="2"/><g> <circle style="fill:#76C9B0;" cx="45.5" cy="47" r="11"/> <path style="fill:#FFFFFF;" d="M51.5,46h-5v-5c0-0.552-0.447-1-1-1s-1,0.448-1,1v6c0,0.552,0.447,1,1,1h6c0.553,0,1-0.448,1-1 S52.053,46,51.5,46z"/> </g></symbol><symbol id="notebook-4" viewBox="0 0 58 58"><title>notebook-4</title><rect x="1" style="fill:#CBB292;" width="44" height="58"/><rect x="1" style="fill:#7F6E5D;" width="8" height="58"/><rect x="16" y="10" style="fill:#EFEBDE;" width="22" height="12"/><rect x="20" y="13" style="fill:#D5D0BB;" width="14" height="2"/><rect x="20" y="17" style="fill:#D5D0BB;" width="14" height="2"/><g> <circle style="fill:#ED7161;" cx="45" cy="46" r="12"/> <path style="fill:#FFFFFF;" d="M46.414,46l3.536-3.536c0.391-0.391,0.391-1.023,0-1.414s-1.023-0.391-1.414,0L45,44.586 l-3.536-3.536c-0.391-0.391-1.023-0.391-1.414,0s-0.391,1.023,0,1.414L43.586,46l-3.536,3.536c-0.391,0.391-0.391,1.023,0,1.414 c0.195,0.195,0.451,0.293,0.707,0.293s0.512-0.098,0.707-0.293L45,47.414l3.536,3.536c0.195,0.195,0.451,0.293,0.707,0.293 s0.512-0.098,0.707-0.293c0.391-0.391,0.391-1.023,0-1.414L46.414,46z"/> </g></symbol><symbol id="bookmark" viewBox="0 0 58 58"><title>bookmark</title><rect x="1" style="fill:#CBB292;" width="44" height="58"/><rect x="1" style="fill:#7F6E5D;" width="8" height="58"/><rect x="16" y="10" style="fill:#EFEBDE;" width="22" height="12"/><rect x="20" y="13" style="fill:#D5D0BB;" width="14" height="2"/><rect x="20" y="17" style="fill:#D5D0BB;" width="14" height="2"/><g> <polygon style="fill:#F3D55A;" points="45,36 48.708,43.242 57,44.403 51,50.04 52.416,58 45,54.242 37.584,58 39,50.04 33,44.403 41.292,43.242 "/> </g></symbol><symbol id="label" viewBox="0 0 56 56"><title>label</title><path style="fill:#E7D4B1;" d="M44.472,0H31.294L6.848,24.367l23.734,23.785L55,23.814V10.504L44.472,0z M43.015,14.87 c-1.621,0-2.935-1.314-2.935-2.935S41.394,9,43.015,9c1.621,0,2.935,1.314,2.935,2.935S44.636,14.87,43.015,14.87z"/><polygon style="fill:#D3C2A4;" points="6.877,24.354 1,30.215 24.734,54 30.637,48.113 "/><path style="fill:#CBB292;" d="M43.015,9c1.621,0,2.935,1.314,2.935,2.935s-1.314,2.935-2.935,2.935 c-1.621,0-2.935-1.314-2.935-2.935S41.394,9,43.015,9 M43.015,5c-3.824,0-6.935,3.111-6.935,6.935s3.111,6.935,6.935,6.935 c3.824,0,6.935-3.111,6.935-6.935S46.839,5,43.015,5L43.015,5z"/><g> <circle style="fill:#71C386;" cx="37" cy="44" r="12"/> <path style="fill:#FFFFFF;" d="M43,43h-5v-5c0-0.552-0.448-1-1-1s-1,0.448-1,1v5h-5c-0.552,0-1,0.448-1,1s0.448,1,1,1h5v5 c0,0.552,0.448,1,1,1s1-0.448,1-1v-5h5c0.552,0,1-0.448,1-1S43.552,43,43,43z"/> </g></symbol><symbol id="notebook-3" viewBox="0 0 58 58"><title>notebook-3</title><rect x="1.5" style="fill:#CBB292;" width="44" height="58"/><rect x="1.5" style="fill:#7F6E5D;" width="8" height="58"/><rect x="16.5" y="10" style="fill:#EFEBDE;" width="22" height="12"/><rect x="20.5" y="13" style="fill:#D5D0BB;" width="14" height="2"/><rect x="20.5" y="17" style="fill:#D5D0BB;" width="14" height="2"/><g> <path style="fill:#556080;" d="M56.5,44.846l-1.444-0.278c-2.143-0.412-3.125-2.916-1.835-4.675l0.907-1.236l-1.958-1.958 l-1.217,0.825c-1.806,1.224-4.272,0.148-4.604-2.008L46.115,34h-2.769l-0.359,1.865c-0.403,2.096-2.818,3.096-4.585,1.899 l-1.572-1.065l-1.958,1.958l0.907,1.236c1.29,1.76,0.308,4.263-1.835,4.675L32.5,44.846v2.769l1.515,0.233 c2.157,0.332,3.232,2.797,2.008,4.604l-0.825,1.217l1.958,1.958l1.236-0.907c1.76-1.29,4.263-0.308,4.675,1.835L43.346,58h2.769 l0.164-1.066c0.339-2.204,2.896-3.263,4.694-1.944l0.869,0.638l1.958-1.958l-0.825-1.217c-1.224-1.806-0.148-4.272,2.008-4.604 l1.515-0.233V44.846z"/> <g> <circle style="fill:#FFFFFF;" cx="44.5" cy="46" r="4"/> <path style="fill:#ECF0F1;" d="M44.5,51c-2.757,0-5-2.243-5-5s2.243-5,5-5s5,2.243,5,5S47.257,51,44.5,51z M44.5,43 c-1.654,0-3,1.346-3,3s1.346,3,3,3s3-1.346,3-3S46.154,43,44.5,43z"/> </g> </g></symbol><symbol id="notebook-2" viewBox="0 0 58 58"><title>notebook-2</title><rect x="1" style="fill:#CBB292;" width="44" height="58"/><rect x="1" style="fill:#7F6E5D;" width="8" height="58"/><rect x="16" y="10" style="fill:#EFEBDE;" width="22" height="12"/><rect x="20" y="13" style="fill:#D5D0BB;" width="14" height="2"/><rect x="20" y="17" style="fill:#D5D0BB;" width="14" height="2"/><g> <circle style="fill:#71C386;" cx="45" cy="46" r="12"/> <path style="fill:#FFFFFF;" d="M51,45h-5v-5c0-0.552-0.448-1-1-1s-1,0.448-1,1v5h-5c-0.552,0-1,0.448-1,1s0.448,1,1,1h5v5 c0,0.552,0.448,1,1,1s1-0.448,1-1v-5h5c0.552,0,1-0.448,1-1S51.552,45,51,45z"/> </g></symbol><symbol id="notebook-1" viewBox="0 0 58 58"><title>notebook-1</title><rect x="1" style="fill:#CBB292;" width="44" height="58"/><rect x="1" style="fill:#7F6E5D;" width="8" height="58"/><rect x="16" y="10" style="fill:#EFEBDE;" width="22" height="12"/><rect x="20" y="13" style="fill:#D5D0BB;" width="14" height="2"/><rect x="20" y="17" style="fill:#D5D0BB;" width="14" height="2"/><g> <circle style="fill:#26B999;" cx="45" cy="46" r="12"/> <path style="fill:#FFFFFF;" d="M51.571,40.179c-0.455-0.316-1.077-0.204-1.392,0.25l-5.596,8.04l-3.949-3.242 c-0.426-0.351-1.057-0.288-1.407,0.139c-0.351,0.427-0.289,1.057,0.139,1.407l4.786,3.929c0.18,0.147,0.404,0.227,0.634,0.227 c0.045,0,0.091-0.003,0.137-0.009c0.276-0.039,0.524-0.19,0.684-0.419l6.214-8.929C52.136,41.118,52.024,40.495,51.571,40.179z"/> </g></symbol><symbol id="user-5" viewBox="0 0 59 59"><title>user-5</title><g> <path style="fill:#ECF0F1;" d="M18.613,42.562l-7.907,4.313c-0.464,0.253-0.881,0.564-1.269,0.903 c4.611,3.886,10.562,6.231,17.064,6.231c6.454,0,12.367-2.31,16.964-6.144c-0.424-0.358-0.884-0.68-1.394-0.934l-8.467-4.233 c-1.094-0.547-1.785-1.665-1.785-2.888v-3.322c0.238-0.271,0.51-0.619,0.801-1.03c1.154-1.63,2.027-3.423,2.632-5.304 c1.086-0.335,1.886-1.338,1.886-2.53v-3.546c0-0.78-0.347-1.477-0.886-1.965v-5.126c0,0,1.053-7.977-9.75-7.977 s-9.75,7.977-9.75,7.977v5.126c-0.54,0.488-0.886,1.185-0.886,1.965v3.546c0,0.934,0.491,1.756,1.226,2.231 c0.886,3.857,3.206,6.633,3.206,6.633v3.24C20.296,40.908,19.65,41.996,18.613,42.562z"/> <g> <path style="fill:#556080;" d="M26.953,1.013C12.32,0.763,0.254,12.423,0.004,27.056C-0.138,35.353,3.56,42.81,9.448,47.769 c0.385-0.336,0.798-0.644,1.257-0.894l7.907-4.313c1.037-0.566,1.683-1.653,1.683-2.835v-3.24c0,0-2.321-2.776-3.206-6.633 c-0.734-0.475-1.226-1.296-1.226-2.231v-3.546c0-0.78,0.347-1.477,0.886-1.965v-5.126c0,0-1.053-7.977,9.75-7.977 s9.75,7.977,9.75,7.977v5.126c0.54,0.488,0.886,1.185,0.886,1.965v3.546c0,1.192-0.8,2.195-1.886,2.53 c-0.605,1.881-1.478,3.674-2.632,5.304c-0.291,0.411-0.563,0.759-0.801,1.03v3.322c0,1.223,0.691,2.342,1.785,2.888l8.467,4.233 c0.508,0.254,0.967,0.575,1.39,0.932c5.71-4.762,9.399-11.882,9.536-19.9C53.246,13.329,41.587,1.263,26.953,1.013z"/> </g> </g><g> <circle style="fill:#D0E8F9;" cx="44.777" cy="42.805" r="9.796"/> <path style="fill:#EAF6FD;" d="M48.33,33.684L35.656,46.358c0.706,1.81,1.93,3.357,3.495,4.459l13.638-13.638 C51.687,35.613,50.14,34.389,48.33,33.684z"/> <path style="fill:#B1D3EF;" d="M58.723,56.3l-5.97-6.244c1.746-1.919,2.82-4.458,2.82-7.251c0-5.953-4.843-10.796-10.796-10.796 s-10.796,4.843-10.796,10.796s4.843,10.796,10.796,10.796c2.442,0,4.689-0.824,6.499-2.196l6.001,6.276 c0.196,0.206,0.459,0.309,0.723,0.309c0.249,0,0.497-0.092,0.691-0.277C59.09,57.332,59.105,56.699,58.723,56.3z M35.982,42.805 c0-4.85,3.946-8.796,8.796-8.796s8.796,3.946,8.796,8.796s-3.946,8.796-8.796,8.796S35.982,47.655,35.982,42.805z"/> </g></symbol><symbol id="user-4" viewBox="0 0 59 59"><title>user-4</title><g> <path style="fill:#ECF0F1;" d="M18.613,42.552l-7.907,4.313c-0.464,0.253-0.881,0.564-1.269,0.903 C14.047,51.655,19.998,54,26.5,54c6.454,0,12.367-2.31,16.964-6.144c-0.424-0.358-0.884-0.68-1.394-0.934l-8.467-4.233 c-1.094-0.547-1.785-1.665-1.785-2.888v-3.322c0.238-0.271,0.51-0.619,0.801-1.03c1.154-1.63,2.027-3.423,2.632-5.304 c1.086-0.335,1.886-1.338,1.886-2.53v-3.546c0-0.78-0.347-1.477-0.886-1.965v-5.126c0,0,1.053-7.977-9.75-7.977 s-9.75,7.977-9.75,7.977v5.126c-0.54,0.488-0.886,1.185-0.886,1.965v3.546c0,0.934,0.491,1.756,1.226,2.231 c0.886,3.857,3.206,6.633,3.206,6.633v3.24C20.296,40.899,19.65,41.986,18.613,42.552z"/> <g> <path style="fill:#556080;" d="M26.953,1.004C12.32,0.754,0.254,12.413,0.004,27.047C-0.138,35.344,3.56,42.801,9.448,47.76 c0.385-0.336,0.798-0.644,1.257-0.894l7.907-4.313c1.037-0.566,1.683-1.653,1.683-2.835v-3.24c0,0-2.321-2.776-3.206-6.633 c-0.734-0.475-1.226-1.296-1.226-2.231v-3.546c0-0.78,0.347-1.477,0.886-1.965v-5.126c0,0-1.053-7.977,9.75-7.977 s9.75,7.977,9.75,7.977v5.126c0.54,0.488,0.886,1.185,0.886,1.965v3.546c0,1.192-0.8,2.195-1.886,2.53 c-0.605,1.881-1.478,3.674-2.632,5.304c-0.291,0.411-0.563,0.759-0.801,1.03V39.8c0,1.223,0.691,2.342,1.785,2.888l8.467,4.233 c0.508,0.254,0.967,0.575,1.39,0.932c5.71-4.762,9.399-11.882,9.536-19.9C53.246,13.32,41.587,1.254,26.953,1.004z"/> </g> </g><g> <circle style="fill:#ED7161;" cx="47" cy="46" r="12"/> <path style="fill:#FFFFFF;" d="M48.414,46l3.536-3.536c0.391-0.391,0.391-1.023,0-1.414s-1.023-0.391-1.414,0L47,44.586 l-3.536-3.536c-0.391-0.391-1.023-0.391-1.414,0s-0.391,1.023,0,1.414L45.586,46l-3.536,3.536c-0.391,0.391-0.391,1.023,0,1.414 c0.195,0.195,0.451,0.293,0.707,0.293s0.512-0.098,0.707-0.293L47,47.414l3.536,3.536c0.195,0.195,0.451,0.293,0.707,0.293 s0.512-0.098,0.707-0.293c0.391-0.391,0.391-1.023,0-1.414L48.414,46z"/> </g></symbol><symbol id="price-tag" viewBox="0 0 56 56"><title>price-tag</title><g> <path style="fill:#E7D4B1;" d="M44.472,0H31.294L6.848,24.367l23.734,23.785L55,23.814V10.504L44.472,0z M43.015,14.87 c-1.621,0-2.935-1.314-2.935-2.935S41.394,9,43.015,9c1.621,0,2.935,1.314,2.935,2.935S44.636,14.87,43.015,14.87z"/> <polygon style="fill:#D3C2A4;" points="6.877,24.354 1,30.215 24.734,54 30.637,48.113 "/> <path style="fill:#CBB292;" d="M43.015,9c1.621,0,2.935,1.314,2.935,2.935s-1.314,2.935-2.935,2.935 c-1.621,0-2.935-1.314-2.935-2.935S41.394,9,43.015,9 M43.015,5c-3.824,0-6.935,3.111-6.935,6.935s3.111,6.935,6.935,6.935 c3.824,0,6.935-3.111,6.935-6.935S46.839,5,43.015,5L43.015,5z"/> </g><g> <circle style="fill:#26B999;" cx="37" cy="44" r="12"/> <path style="fill:#FFFFFF;" d="M43.571,38.179c-0.455-0.316-1.077-0.204-1.392,0.25l-5.596,8.04l-3.949-3.242 c-0.426-0.351-1.057-0.288-1.407,0.139c-0.351,0.427-0.289,1.057,0.139,1.407l4.786,3.929c0.18,0.147,0.404,0.227,0.634,0.227 c0.045,0,0.091-0.003,0.137-0.009c0.276-0.039,0.524-0.19,0.684-0.419l6.214-8.929C44.136,39.118,44.024,38.495,43.571,38.179z"/> </g></symbol><symbol id="user-3" viewBox="0 0 59 59"><title>user-3</title><g> <path style="fill:#ECF0F1;" d="M18.613,42.552l-7.907,4.313c-0.464,0.253-0.881,0.564-1.269,0.903 C14.047,51.655,19.998,54,26.5,54c6.454,0,12.367-2.31,16.964-6.144c-0.424-0.358-0.884-0.68-1.394-0.934l-8.467-4.233 c-1.094-0.547-1.785-1.665-1.785-2.888v-3.322c0.238-0.271,0.51-0.619,0.801-1.03c1.154-1.63,2.027-3.423,2.632-5.304 c1.086-0.335,1.886-1.338,1.886-2.53v-3.546c0-0.78-0.347-1.477-0.886-1.965v-5.126c0,0,1.053-7.977-9.75-7.977 s-9.75,7.977-9.75,7.977v5.126c-0.54,0.488-0.886,1.185-0.886,1.965v3.546c0,0.934,0.491,1.756,1.226,2.231 c0.886,3.857,3.206,6.633,3.206,6.633v3.24C20.296,40.899,19.65,41.986,18.613,42.552z"/> <g> <path style="fill:#556080;" d="M26.953,1.004C12.32,0.754,0.254,12.413,0.004,27.047C-0.138,35.343,3.56,42.8,9.448,47.76 c0.385-0.336,0.798-0.644,1.257-0.894l7.907-4.313c1.037-0.566,1.683-1.653,1.683-2.835v-3.24c0,0-2.321-2.776-3.206-6.633 c-0.734-0.475-1.226-1.296-1.226-2.231v-3.546c0-0.78,0.347-1.477,0.886-1.965v-5.126c0,0-1.053-7.977,9.75-7.977 s9.75,7.977,9.75,7.977v5.126c0.54,0.488,0.886,1.185,0.886,1.965v3.546c0,1.192-0.8,2.195-1.886,2.53 c-0.605,1.881-1.478,3.674-2.632,5.304c-0.291,0.411-0.563,0.759-0.801,1.03v3.322c0,1.223,0.691,2.342,1.785,2.888l8.467,4.233 c0.508,0.254,0.967,0.575,1.39,0.932c5.71-4.762,9.399-11.882,9.536-19.9C53.246,13.32,41.587,1.254,26.953,1.004z"/> </g> </g><g> <path style="fill:#BDC3C7;" d="M59,44.846l-1.444-0.278c-2.143-0.412-3.125-2.916-1.835-4.675l0.907-1.236l-1.958-1.958 l-1.217,0.825c-1.806,1.224-4.272,0.148-4.604-2.008L48.615,34h-2.769l-0.359,1.865c-0.403,2.096-2.818,3.096-4.585,1.899 l-1.572-1.065l-1.958,1.958l0.907,1.236c1.29,1.76,0.308,4.263-1.835,4.675L35,44.846v2.769l1.515,0.233 c2.157,0.332,3.232,2.797,2.008,4.604l-0.825,1.217l1.958,1.958l1.236-0.907c1.76-1.29,4.263-0.308,4.675,1.835L45.846,58h2.769 l0.164-1.066c0.339-2.204,2.896-3.263,4.694-1.944l0.869,0.638l1.958-1.958l-0.825-1.217c-1.224-1.806-0.148-4.272,2.008-4.604 L59,47.615V44.846z"/> <g> <circle style="fill:#FFFFFF;" cx="47" cy="46" r="4"/> <path style="fill:#ECF0F1;" d="M47,51c-2.757,0-5-2.243-5-5s2.243-5,5-5s5,2.243,5,5S49.757,51,47,51z M47,43 c-1.654,0-3,1.346-3,3s1.346,3,3,3s3-1.346,3-3S48.654,43,47,43z"/> </g> </g></symbol><symbol id="notebook" viewBox="0 0 59 59"><title>notebook</title><rect x="1.365" style="fill:#CBB292;" width="44" height="58"/><rect x="1.365" style="fill:#7F6E5D;" width="8" height="58"/><rect x="16.365" y="10" style="fill:#EFEBDE;" width="22" height="12"/><rect x="20.365" y="13" style="fill:#D5D0BB;" width="14" height="2"/><rect x="20.365" y="17" style="fill:#D5D0BB;" width="14" height="2"/><g> <polygon style="fill:#EDDCC7;" points="36.201,49.507 36.194,49.515 34.205,56.804 38.852,52.158 "/> <path style="fill:#D75A4A;" d="M55.451,35.559l-1.247-1.247c-0.775-0.775-2.032-0.775-2.807,0l-3.582,3.582l2.651,2.651 L55.451,35.559z"/> <rect x="41.459" y="36.814" transform="matrix(0.7071 0.7071 -0.7071 0.7071 44.53 -17.4537)" style="fill:#F29C21;" width="3.749" height="16.424"/> <polygon style="fill:#D6C4B1;" points="41.85,55.172 41.858,55.164 38.852,52.158 34.205,56.804 34.072,57.293 "/> <path style="fill:#A34740;" d="M53.472,43.55l3.582-3.582c0.775-0.775,0.775-2.032,0-2.807l-1.602-1.602l-4.985,4.985 L53.472,43.55z"/> <rect x="44.036" y="39.642" transform="matrix(-0.7071 -0.7071 0.7071 -0.7071 44.9646 114.3334)" style="fill:#E18C25;" width="4.251" height="16.424"/> <path style="fill:#5E5E5E;" d="M33.365,59c-0.256,0-0.512-0.098-0.707-0.293c-0.391-0.391-0.391-1.023,0-1.414l2.207-2.207 c0.391-0.391,1.023-0.391,1.414,0s0.391,1.023,0,1.414l-2.207,2.207C33.877,58.902,33.621,59,33.365,59z"/> </g></symbol><symbol id="list-1" viewBox="0 0 55.981 55.981"><title>list-1</title><g> <path style="fill:#3ABCA7;" d="M44.627,52H9.354c-4.619,0-8.364-3.745-8.364-8.364V8.364C0.991,3.745,4.735,0,9.354,0h35.272 c4.619,0,8.364,3.745,8.364,8.364v35.272C52.991,48.255,49.246,52,44.627,52z"/> <path style="fill:#FFFFFF;" d="M44.991,14h-18c-0.553,0-1-0.447-1-1s0.447-1,1-1h18c0.553,0,1,0.447,1,1S45.543,14,44.991,14z"/> <path style="fill:#FFFFFF;" d="M44.991,28h-18c-0.553,0-1-0.447-1-1s0.447-1,1-1h18c0.553,0,1,0.447,1,1S45.543,28,44.991,28z"/> <path style="fill:#FFFFFF;" d="M44.991,42h-18c-0.553,0-1-0.447-1-1s0.447-1,1-1h18c0.553,0,1,0.447,1,1S45.543,42,44.991,42z"/> <path style="fill:#FFFFFF;" d="M13.061,17c-0.209,0-0.42-0.065-0.599-0.2l-4.571-3.429c-0.442-0.331-0.532-0.958-0.2-1.399 c0.332-0.443,0.959-0.53,1.399-0.2l3.822,2.866l6.248-7.288c0.358-0.42,0.992-0.468,1.409-0.108 c0.42,0.359,0.469,0.99,0.108,1.409l-6.857,8C13.625,16.881,13.344,17,13.061,17z"/> <path style="fill:#FFFFFF;" d="M13.061,31c-0.209,0-0.42-0.065-0.599-0.2l-4.571-3.429c-0.442-0.331-0.532-0.958-0.2-1.399 c0.332-0.443,0.959-0.53,1.399-0.2l3.822,2.866l6.248-7.288c0.358-0.42,0.992-0.468,1.409-0.108 c0.42,0.359,0.469,0.99,0.108,1.409l-6.857,8C13.625,30.881,13.344,31,13.061,31z"/> <path style="fill:#FFFFFF;" d="M13.061,45.999c-0.209,0-0.42-0.065-0.599-0.2L7.891,42.37c-0.442-0.331-0.532-0.958-0.2-1.399 c0.332-0.443,0.959-0.531,1.399-0.2l3.822,2.866l6.248-7.287c0.358-0.42,0.992-0.468,1.409-0.108 c0.42,0.359,0.469,0.99,0.108,1.409l-6.857,7.999C13.625,45.88,13.344,45.999,13.061,45.999z"/> </g><g> <circle style="fill:#D0E8F9;" cx="40.768" cy="40.796" r="9.796"/> <path style="fill:#EAF6FD;" d="M44.321,31.674L31.647,44.348c0.706,1.81,1.93,3.357,3.495,4.459L48.78,35.17 C47.678,33.604,46.131,32.38,44.321,31.674z"/> <path style="fill:#B1D3EF;" d="M54.713,54.291l-5.97-6.244c1.746-1.919,2.82-4.458,2.82-7.251C51.564,34.843,46.721,30,40.768,30 s-10.796,4.843-10.796,10.796s4.843,10.796,10.796,10.796c2.442,0,4.689-0.824,6.499-2.196l6.001,6.276 c0.196,0.206,0.459,0.309,0.723,0.309c0.249,0,0.497-0.092,0.691-0.277C55.081,55.323,55.095,54.689,54.713,54.291z M31.972,40.796c0-4.85,3.946-8.796,8.796-8.796s8.796,3.946,8.796,8.796s-3.946,8.796-8.796,8.796S31.972,45.646,31.972,40.796z"/> </g></symbol><symbol id="user-2" viewBox="0 0 58.27 58.27"><title>user-2</title><g> <path style="fill:#ECF0F1;" d="M18.613,41.696l-7.907,4.313c-0.464,0.253-0.881,0.564-1.269,0.903 c4.611,3.886,10.562,6.231,17.064,6.231c6.454,0,12.367-2.31,16.964-6.144c-0.424-0.358-0.884-0.68-1.394-0.934l-8.467-4.233 c-1.094-0.547-1.785-1.665-1.785-2.888v-3.322c0.238-0.271,0.51-0.619,0.801-1.03c1.154-1.63,2.027-3.423,2.632-5.304 c1.086-0.335,1.886-1.338,1.886-2.53v-3.546c0-0.78-0.347-1.477-0.886-1.965v-5.126c0,0,1.053-7.977-9.75-7.977 s-9.75,7.977-9.75,7.977v5.126c-0.54,0.488-0.886,1.185-0.886,1.965v3.546c0,0.934,0.491,1.756,1.226,2.231 c0.886,3.857,3.206,6.633,3.206,6.633v3.24C20.296,40.043,19.65,41.13,18.613,41.696z"/> <g> <path style="fill:#556080;" d="M26.953,0.148C12.32-0.102,0.254,11.558,0.004,26.191c-0.142,8.297,3.556,15.754,9.444,20.713 c0.385-0.336,0.798-0.644,1.257-0.894l7.907-4.313c1.037-0.566,1.683-1.653,1.683-2.835v-3.24c0,0-2.321-2.776-3.206-6.633 c-0.734-0.475-1.226-1.296-1.226-2.231v-3.546c0-0.78,0.347-1.477,0.886-1.965v-5.126c0,0-1.053-7.977,9.75-7.977 s9.75,7.977,9.75,7.977v5.126c0.54,0.488,0.886,1.185,0.886,1.965v3.546c0,1.192-0.8,2.195-1.886,2.53 c-0.605,1.881-1.478,3.674-2.632,5.304c-0.291,0.411-0.563,0.759-0.801,1.03v3.322c0,1.223,0.691,2.342,1.785,2.888l8.467,4.233 c0.508,0.254,0.967,0.575,1.39,0.932c5.71-4.762,9.399-11.882,9.536-19.9C53.246,12.464,41.587,0.398,26.953,0.148z"/> </g> </g><g> <polygon style="fill:#EDDCC7;" points="36.836,48.633 36.828,48.64 34.84,55.93 39.487,51.283 "/> <path style="fill:#D75A4A;" d="M56.086,34.684l-1.247-1.247c-0.775-0.775-2.032-0.775-2.807,0l-3.582,3.582L51.1,39.67 L56.086,34.684z"/> <rect x="42.094" y="35.939" transform="matrix(0.7071 0.7071 -0.7071 0.7071 44.0976 -18.1587)" style="fill:#F29C21;" width="3.749" height="16.424"/> <polygon style="fill:#D6C4B1;" points="42.485,54.297 42.493,54.29 39.487,51.283 34.84,55.93 34.707,56.418 "/> <path style="fill:#A34740;" d="M54.107,42.676l3.582-3.582c0.775-0.775,0.775-2.032,0-2.807l-1.602-1.602L51.1,39.67 L54.107,42.676z"/> <rect x="44.671" y="38.768" transform="matrix(-0.7071 -0.7071 0.7071 -0.7071 46.6666 113.2895)" style="fill:#E18C25;" width="4.251" height="16.424"/> <path style="fill:#5E5E5E;" d="M34,58.126c-0.256,0-0.512-0.098-0.707-0.293c-0.391-0.391-0.391-1.023,0-1.414l2.207-2.207 c0.391-0.391,1.023-0.391,1.414,0s0.391,1.023,0,1.414l-2.207,2.207C34.512,58.028,34.256,58.126,34,58.126z"/> </g></symbol><symbol id="list" viewBox="0 0 56 56"><title>list</title><g> <path style="fill:#3ABCA7;" d="M44.136,52H8.864C4.245,52,0.5,48.255,0.5,43.636V8.364C0.5,3.745,4.245,0,8.864,0h35.272 C48.755,0,52.5,3.745,52.5,8.364v35.272C52.5,48.255,48.755,52,44.136,52z"/> <path style="fill:#FFFFFF;" d="M44.5,14h-18c-0.552,0-1-0.447-1-1s0.448-1,1-1h18c0.552,0,1,0.447,1,1S45.052,14,44.5,14z"/> <path style="fill:#FFFFFF;" d="M44.5,28h-18c-0.552,0-1-0.447-1-1s0.448-1,1-1h18c0.552,0,1,0.447,1,1S45.052,28,44.5,28z"/> <path style="fill:#FFFFFF;" d="M44.5,42h-18c-0.552,0-1-0.447-1-1s0.448-1,1-1h18c0.552,0,1,0.447,1,1S45.052,42,44.5,42z"/> <path style="fill:#FFFFFF;" d="M12.571,17c-0.209,0-0.42-0.065-0.6-0.2L7.4,13.371c-0.442-0.331-0.531-0.958-0.2-1.399 c0.331-0.442,0.958-0.531,1.4-0.2l3.822,2.866l6.248-7.288c0.36-0.42,0.992-0.468,1.41-0.108c0.419,0.359,0.468,0.99,0.108,1.409 l-6.857,8C13.133,16.881,12.854,17,12.571,17z"/> <path style="fill:#FFFFFF;" d="M12.571,31c-0.209,0-0.42-0.065-0.6-0.2L7.4,27.371c-0.442-0.331-0.531-0.958-0.2-1.399 c0.331-0.442,0.958-0.531,1.4-0.2l3.822,2.866l6.248-7.288c0.36-0.42,0.992-0.468,1.41-0.108c0.419,0.359,0.468,0.99,0.108,1.409 l-6.857,8C13.133,30.881,12.854,31,12.571,31z"/> <path style="fill:#FFFFFF;" d="M12.571,45.999c-0.209,0-0.42-0.065-0.6-0.2L7.4,42.37c-0.442-0.331-0.531-0.958-0.2-1.399 c0.331-0.442,0.958-0.53,1.4-0.2l3.822,2.866l6.248-7.287c0.36-0.42,0.992-0.468,1.41-0.108c0.419,0.359,0.468,0.99,0.108,1.409 l-6.857,7.999C13.133,45.88,12.854,45.999,12.571,45.999z"/> </g><g> <circle style="fill:#26B999;" cx="43.5" cy="44" r="12"/> <path style="fill:#FFFFFF;" d="M50.071,38.179c-0.455-0.316-1.077-0.204-1.392,0.25l-5.596,8.04l-3.949-3.242 c-0.426-0.351-1.057-0.288-1.407,0.139c-0.351,0.427-0.289,1.057,0.139,1.407l4.786,3.929c0.18,0.147,0.404,0.227,0.634,0.227 c0.045,0,0.091-0.003,0.137-0.009c0.276-0.039,0.524-0.19,0.684-0.419l6.214-8.929C50.636,39.118,50.524,38.495,50.071,38.179z"/> </g></symbol><symbol id="user-1" viewBox="0 0 59 59"><title>user-1</title><path style="fill:#ECF0F1;" d="M18.613,42.552l-7.907,4.313c-0.464,0.253-0.881,0.564-1.269,0.903C14.047,51.655,19.998,54,26.5,54 c6.454,0,12.367-2.31,16.964-6.144c-0.424-0.358-0.884-0.68-1.394-0.934l-8.467-4.233c-1.094-0.547-1.785-1.665-1.785-2.888v-3.322 c0.238-0.271,0.51-0.619,0.801-1.03c1.154-1.63,2.027-3.423,2.632-5.304c1.086-0.335,1.886-1.338,1.886-2.53v-3.546 c0-0.78-0.347-1.477-0.886-1.965v-5.126c0,0,1.053-7.977-9.75-7.977s-9.75,7.977-9.75,7.977v5.126 c-0.54,0.488-0.886,1.185-0.886,1.965v3.546c0,0.934,0.491,1.756,1.226,2.231c0.886,3.857,3.206,6.633,3.206,6.633v3.24 C20.296,40.899,19.65,41.986,18.613,42.552z"/><g> <path style="fill:#556080;" d="M26.953,1.004C12.32,0.754,0.254,12.414,0.004,27.047C-0.138,35.344,3.56,42.801,9.448,47.76 c0.385-0.336,0.798-0.644,1.257-0.894l7.907-4.313c1.037-0.566,1.683-1.653,1.683-2.835v-3.24c0,0-2.321-2.776-3.206-6.633 c-0.734-0.475-1.226-1.296-1.226-2.231v-3.546c0-0.78,0.347-1.477,0.886-1.965v-5.126c0,0-1.053-7.977,9.75-7.977 s9.75,7.977,9.75,7.977v5.126c0.54,0.488,0.886,1.185,0.886,1.965v3.546c0,1.192-0.8,2.195-1.886,2.53 c-0.605,1.881-1.478,3.674-2.632,5.304c-0.291,0.411-0.563,0.759-0.801,1.03V39.8c0,1.223,0.691,2.342,1.785,2.888l8.467,4.233 c0.508,0.254,0.967,0.575,1.39,0.932c5.71-4.762,9.399-11.882,9.536-19.9C53.246,13.32,41.587,1.254,26.953,1.004z"/> </g><g> <circle style="fill:#71C386;" cx="47" cy="46" r="12"/> <path style="fill:#FFFFFF;" d="M53,45h-5v-5c0-0.552-0.448-1-1-1s-1,0.448-1,1v5h-5c-0.552,0-1,0.448-1,1s0.448,1,1,1h5v5 c0,0.552,0.448,1,1,1s1-0.448,1-1v-5h5c0.552,0,1-0.448,1-1S53.552,45,53,45z"/> </g></symbol><symbol id="user" viewBox="0 0 59 59"><title>user</title><g> <path style="fill:#ECF0F1;" d="M18.613,42.552l-7.907,4.313c-0.464,0.253-0.881,0.564-1.269,0.903 C14.047,51.655,19.998,54,26.5,54c6.454,0,12.367-2.31,16.964-6.144c-0.424-0.358-0.884-0.68-1.394-0.934l-8.467-4.233 c-1.094-0.547-1.785-1.665-1.785-2.888v-3.322c0.238-0.271,0.51-0.619,0.801-1.03c1.154-1.63,2.027-3.423,2.632-5.304 c1.086-0.335,1.886-1.338,1.886-2.53v-3.546c0-0.78-0.347-1.477-0.886-1.965v-5.126c0,0,1.053-7.977-9.75-7.977 s-9.75,7.977-9.75,7.977v5.126c-0.54,0.488-0.886,1.185-0.886,1.965v3.546c0,0.934,0.491,1.756,1.226,2.231 c0.886,3.857,3.206,6.633,3.206,6.633v3.24C20.296,40.899,19.65,41.986,18.613,42.552z"/> <g> <path style="fill:#556080;" d="M26.953,1.004C12.32,0.754,0.254,12.413,0.004,27.047C-0.138,35.343,3.56,42.8,9.448,47.76 c0.385-0.336,0.798-0.644,1.257-0.894l7.907-4.313c1.037-0.566,1.683-1.653,1.683-2.835v-3.24c0,0-2.321-2.776-3.206-6.633 c-0.734-0.475-1.226-1.296-1.226-2.231v-3.546c0-0.78,0.347-1.477,0.886-1.965v-5.126c0,0-1.053-7.977,9.75-7.977 s9.75,7.977,9.75,7.977v5.126c0.54,0.488,0.886,1.185,0.886,1.965v3.546c0,1.192-0.8,2.195-1.886,2.53 c-0.605,1.881-1.478,3.674-2.632,5.304c-0.291,0.411-0.563,0.759-0.801,1.03v3.322c0,1.223,0.691,2.342,1.785,2.888l8.467,4.233 c0.508,0.254,0.967,0.575,1.39,0.932c5.71-4.762,9.399-11.882,9.536-19.9C53.246,13.32,41.587,1.254,26.953,1.004z"/> </g> </g><g> <circle style="fill:#26B999;" cx="47" cy="46" r="12"/> <path style="fill:#FFFFFF;" d="M53.571,40.179c-0.455-0.316-1.077-0.204-1.392,0.25l-5.596,8.04l-3.949-3.242 c-0.426-0.351-1.057-0.288-1.407,0.139c-0.351,0.427-0.289,1.057,0.139,1.407l4.786,3.929c0.18,0.147,0.404,0.227,0.634,0.227 c0.045,0,0.091-0.003,0.137-0.009c0.276-0.039,0.524-0.19,0.684-0.419l6.214-8.929C54.136,41.118,54.024,40.495,53.571,40.179z"/> </g></symbol></svg>